<svg width="27" height="114" viewBox="0 0 27 114" fill="none" xmlns="http://www.w3.org/2000/svg">
    <path fill-rule="evenodd" clip-rule="evenodd"
          d="M0 10C0 4.47715 4.47715 0 10 0H17C22.5228 0 27 4.47715 27 10V42C27 45.2716 25.4289 48.1763 23 50.0007V55.7993C25.4289 57.6237 27 60.5284 27 63.8V104C27 109.523 22.5228 114 17 114H10C4.47715 114 0 109.523 0 104V63.8C0 60.0986 2.01099 56.8669 5 55.1378V50.6622C2.01099 48.9331 0 45.7014 0 42V10Z"
          fill="#EEEFFC"/>
    <rect y="17" width="27" height="7" fill="#555FD5"/>
</svg>
