<svg xmlns="http://www.w3.org/2000/svg" version="1.1" xmlns:xlink="http://www.w3.org/1999/xlink" xmlns:svgjs="http://svgjs.com/svgjs" width="145" height="145"><svg width="145" height="145" viewBox="0 0 145 145" fill="none" xmlns="http://www.w3.org/2000/svg">
<path fill-rule="evenodd" clip-rule="evenodd" d="M73.6182 24.6228C61.9485 24.6228 52.4354 34.1359 52.4354 45.8055C52.4354 47.5963 52.6612 49.3333 53.0861 50.995L40.9809 56.8944C38.7222 54.227 35.3558 52.5223 31.6129 52.5223C24.8693 52.5223 19.341 58.0506 19.341 64.7942C19.341 71.5378 24.8693 77.0661 31.6129 77.0661C38.3512 77.0661 43.8848 71.5378 43.8848 64.7942C43.8848 64.0198 43.8095 63.2669 43.6697 62.5356L55.5061 56.7653C59.2274 62.8851 65.9549 66.9883 73.6182 66.9883C76.2747 66.9883 78.813 66.4882 81.1577 65.5955L89.5093 83.2774C84.3467 87.1493 80.9964 93.3122 80.9964 100.239C80.9964 111.908 90.5041 121.421 102.174 121.421C113.843 121.421 123.357 111.908 123.357 100.239C123.357 99.2169 123.281 98.2059 123.141 97.2217H100.007V102.599H118.264C117.124 110.478 110.38 116.495 102.174 116.495C93.1661 116.495 85.917 109.246 85.917 100.239C85.917 91.2364 93.1661 83.9872 102.174 83.9872C106.487 83.9872 110.391 85.6436 113.295 88.3647L117.452 85.5898C113.591 81.5673 108.17 79.0559 102.174 79.0559C99.6624 79.0559 97.2532 79.5022 95.016 80.3089L86.6107 62.5087C91.5904 58.6314 94.8009 52.5814 94.8009 45.8055C94.8009 34.1359 85.2878 24.6228 73.6182 24.6228ZM73.6182 29.5487C82.6258 29.5487 89.8749 36.7979 89.8749 45.8055C89.8749 54.8132 82.6258 62.0623 73.6182 62.0623C64.6105 62.0623 57.3667 54.8132 57.3667 45.8055C57.3667 36.7979 64.6105 29.5487 73.6182 29.5487Z" fill="#7673D1"></path>
<path d="M31.6506 77.0231C38.4489 77.0231 43.9601 71.5119 43.9601 64.7135C43.9601 57.9152 38.4489 52.404 31.6506 52.404C24.8522 52.404 19.341 57.9152 19.341 64.7135C19.341 71.5119 24.8522 77.0231 31.6506 77.0231Z" fill="#FE6231" fill-opacity="0.98"></path>
</svg><style>@media (prefers-color-scheme: light) { :root { filter: none; } }
</style></svg>