<?xml version="1.0" encoding="UTF-8" standalone="no"?>
<svg
  xmlns:dc="http://purl.org/dc/elements/1.1/"
  xmlns:cc="http://creativecommons.org/ns#"
  xmlns:rdf="http://www.w3.org/1999/02/22-rdf-syntax-ns#"
  xmlns:svg="http://www.w3.org/2000/svg"
  xmlns="http://www.w3.org/2000/svg"
  xmlns:xlink="http://www.w3.org/1999/xlink"
  id="svg8"
  version="1.1"
  viewBox="0 0 105.83333 105.83334"
  height="400"
  width="400">
  <defs
    id="defs2">
    <linearGradient
      id="linearGradient867">
      <stop
        id="stop863"
        offset="0"
        style="stop-color:#4844c1;stop-opacity:1;" />
      <stop
        id="stop865"
        offset="1"
        style="stop-color:#4844c1;stop-opacity:0;" />
    </linearGradient>
    <linearGradient
      id="linearGradient2350">
      <stop
        id="stop2342"
        offset="0"
        style="stop-color:#747ddf;stop-opacity:1" />
      <stop
        style="stop-color:#adb2ec;stop-opacity:1"
        offset="0.44159812"
        id="stop2344" />
      <stop
        style="stop-color:#a9aeeb;stop-opacity:1"
        offset="0.56793195"
        id="stop2346" />
      <stop
        id="stop2348"
        offset="1"
        style="stop-color:#747ddf;stop-opacity:1" />
    </linearGradient>
    <pattern
      xlink:href="#Strips1_1"
      id="pattern2334"
      patternTransform="matrix(3.2777274,0,0,3.2777274,-48.016592,187.40861)" />
    <pattern
      id="Strips1_1"
      patternTransform="translate(0,0) scale(10,10)"
      height="1"
      width="2"
      patternUnits="userSpaceOnUse">
      <rect
        id="rect1616"
        height="2"
        width="1"
        y="-0.5"
        x="0"
        style="fill:black;stroke:none" />
    </pattern>
    <linearGradient
      id="linearGradient896">
      <stop
        style="stop-color:#0084f9;stop-opacity:1"
        offset="0"
        id="stop892" />
      <stop
        id="stop2336"
        offset="0.20156994"
        style="stop-color:#009afc;stop-opacity:1;" />
      <stop
        style="stop-color:#0084f9;stop-opacity:1"
        offset="1"
        id="stop894" />
    </linearGradient>
    <linearGradient
      id="linearGradient872">
      <stop
        style="stop-color:#747ddf;stop-opacity:1"
        offset="0"
        id="stop868" />
      <stop
        id="stop878"
        offset="0.5908677"
        style="stop-color:#adb2ec;stop-opacity:1" />
      <stop
        id="stop876"
        offset="0.67372513"
        style="stop-color:#a9aeeb;stop-opacity:1" />
      <stop
        style="stop-color:#747ddf;stop-opacity:1"
        offset="1"
        id="stop870" />
    </linearGradient>
    <linearGradient
      id="linearGradient864">
      <stop
        style="stop-color:#7673d1;stop-opacity:1"
        offset="0"
        id="stop860" />
      <stop
        style="stop-color:#4440c0;stop-opacity:1"
        offset="1"
        id="stop862" />
    </linearGradient>
    <linearGradient
      id="linearGradient848">
      <stop
        style="stop-color:#4dda98;stop-opacity:1"
        offset="0"
        id="stop844" />
      <stop
        style="stop-color:#abf5e4;stop-opacity:1"
        offset="1"
        id="stop846" />
    </linearGradient>
    <linearGradient
      xlink:href="#linearGradient848"
      id="linearGradient850"
      x1="102.59332"
      y1="183.89464"
      x2="139.54776"
      y2="155.16844"
      gradientUnits="userSpaceOnUse"
      gradientTransform="matrix(0.32777274,0,0,0.32777274,36.662184,171.67201)" />
    <radialGradient
      xlink:href="#linearGradient864"
      id="radialGradient866"
      cx="30.554121"
      cy="227.44833"
      fx="30.554121"
      fy="227.44833"
      r="96.007744"
      gradientTransform="matrix(0.33933768,0.12353235,-0.07419843,0.20381966,50.031404,196.79134)"
      gradientUnits="userSpaceOnUse" />
    <linearGradient
      xlink:href="#linearGradient2350"
      id="linearGradient874"
      x1="155.3589"
      y1="166.89134"
      x2="116.10379"
      y2="167.52893"
      gradientUnits="userSpaceOnUse"
      gradientTransform="matrix(0.32777274,0,0,0.32777274,130.97808,116.96133)" />
    <radialGradient
      xlink:href="#linearGradient896"
      id="radialGradient898"
      cx="48.689434"
      cy="245.44897"
      fx="48.689434"
      fy="245.44897"
      r="55.647427"
      gradientTransform="matrix(0.34351534,0.15742627,-0.24546974,0.53563251,92.992249,113.68888)"
      gradientUnits="userSpaceOnUse" />
    <linearGradient
      xlink:href="#linearGradient872"
      id="linearGradient2340"
      x1="69.924294"
      y1="226.06285"
      x2="87.561623"
      y2="243.44975"
      gradientUnits="userSpaceOnUse" />
    <radialGradient
      xlink:href="#linearGradient896"
      id="radialGradient898-181"
      cx="48.689434"
      cy="245.44897"
      fx="48.689434"
      fy="245.44897"
      r="55.647427"
      gradientTransform="matrix(0.34351534,0.15742627,-0.24546974,0.53563251,93.521416,114.74722)"
      gradientUnits="userSpaceOnUse" />
    <linearGradient
      y2="165.76616"
      x2="121.28191"
      y1="166.89134"
      x1="155.3589"
      gradientTransform="matrix(0.32777274,0,0,0.32777274,130.97808,116.96133)"
      gradientUnits="userSpaceOnUse"
      id="linearGradient2606"
      xlink:href="#linearGradient2350" />
    <linearGradient
      y2="243.44975"
      x2="87.561623"
      y1="227.38577"
      x1="70.113281"
      gradientUnits="userSpaceOnUse"
      id="linearGradient2608"
      xlink:href="#linearGradient872" />
    <linearGradient
      gradientUnits="userSpaceOnUse"
      y2="269.11282"
      x2="32.829971"
      y1="259.7579"
      x1="64.256668"
      id="linearGradient871"
      xlink:href="#linearGradient867" />
    <linearGradient
      gradientUnits="userSpaceOnUse"
      y2="263.47711"
      x2="62.340569"
      y1="263.47711"
      x1="16.245867"
      id="linearGradient879"
      xlink:href="#linearGradient864" />
  </defs>
  <metadata
    id="metadata5">
    <rdf:RDF>
      <cc:Work
        rdf:about="">
        <dc:format>image/svg+xml</dc:format>
        <dc:type
          rdf:resource="http://purl.org/dc/dcmitype/StillImage" />
        <dc:title></dc:title>
      </cc:Work>
    </rdf:RDF>
  </metadata>
  <g
    id="layer1"
    transform="translate(0,-191.16665)">
    <path
      style="fill:url(#linearGradient850);fill-opacity:1;stroke:none;stroke-width:0.26458332px;stroke-linecap:butt;stroke-linejoin:miter;stroke-opacity:1"
      d="m 52.272361,235.32235 c -0.190239,2.18631 0.614864,4.70879 2.230025,6.19452 2.580421,2.37363 6.86355,1.52864 10.159004,2.72559 2.396536,0.87045 4.672639,2.05073 6.937857,3.22114 1.774768,0.917 3.272643,2.46063 5.203392,2.97337 1.596532,0.42398 3.359769,0.42659 4.955609,0 3.038388,-0.81219 6.310576,-2.17627 8.17676,-4.70783 1.55751,-2.11283 1.443596,-5.0725 1.734465,-7.6812 0.311184,-2.79089 0.606458,-5.68263 0,-8.42454 -0.845896,-3.82445 -2.505554,-7.59855 -4.955613,-10.65456 -1.421309,-1.77283 -3.062618,-3.45313 -4.883598,-4.88081 -3.578767,-2.77269 -6.654153,-3.9138 -10.928296,-3.493 -5.08623,0.53002 -8.893455,3.37448 -11.196188,8.12603 -0.627425,1.32225 -0.75471,2.83112 -1.238903,4.21227 -0.649497,1.85267 -1.369497,3.68659 -2.230025,5.45117 -1.167501,2.39405 -3.733594,4.28432 -3.964489,6.93785 z"
      id="path21" />
    <path
      style="opacity:1;fill:url(#radialGradient898-181);fill-opacity:1;stroke:none;stroke-width:0.26458332px;stroke-linecap:butt;stroke-linejoin:miter;stroke-opacity:1"
      d="m 54.603408,253.68282 c 0.470046,-3.78996 1.780511,-7.70985 4.212269,-10.65456 1.371421,-1.66071 3.964885,-1.91018 5.451174,-3.46893 1.838084,-1.92769 4.090462,-4.27728 3.964489,-6.93786 -0.210247,-4.44052 -3.671137,-8.98353 -7.681199,-10.90234 -7.196709,-2.64715 -10.93376,3.69333 -14.123494,8.42454 -9.712037,11.18675 -14.143895,23.03205 -14.619054,36.17596 -0.234713,5.77678 0.227443,13.67655 3.96449,18.08799 2.273157,2.68337 6.99192,2.57496 10.406784,1.73446 3.721316,-0.91592 7.371765,-3.55244 9.167882,-6.93786 2.20947,-4.16453 0.925081,-9.41265 0.743342,-14.12349 -0.147704,-3.82864 -1.958266,-7.59555 -1.486683,-11.39791 z"
      id="path23" />
    <path
      id="path880"
      d="m 71.736108,245.408 c 5.034966,-4.11565 12.056252,-6.40432 16.468587,-11.00938 4.564695,-4.18227 2.077758,-10.40116 -3.335412,-10.29909 -4.679362,0.1891 -6.835835,4.79425 -11.054306,6.52956 -6.986091,2.8738 -15.861644,3.91514 -22.091329,7.85366 -5.127293,7.12072 9.147693,15.85005 20.01246,6.92525 z"
      style="fill:url(#linearGradient2608);fill-opacity:1;stroke:none;stroke-width:0.26458332px;stroke-linecap:butt;stroke-linejoin:miter;stroke-opacity:1" />
    <path
      style="fill:url(#radialGradient866);fill-opacity:1;stroke:none;stroke-width:0.26458332px;stroke-linecap:butt;stroke-linejoin:miter;stroke-opacity:1"
      d="m 12.447102,231.81091 c 0.878572,-5.09599 2.953851,-10.57893 6.937856,-13.87571 3.041726,-2.51703 7.553392,-4.11963 11.397907,-3.22115 3.359667,0.78517 6.006237,3.92151 7.681198,6.93786 1.588755,2.8611 0.760738,6.53904 1.734464,9.66344 0.89081,2.85835 2.109608,5.65071 3.71671,8.17676 2.389975,3.75658 5.45981,7.07621 8.672319,10.15901 5.984592,5.74294 14.330139,8.93653 19.574666,15.36239 5.425626,5.83591 2.469637,14.51371 -3.964489,14.37128 -5.561921,-0.26387 -10.596075,-3.5253 -15.610177,-5.94674 -8.303714,-4.01007 -16.382291,-8.62771 -23.786935,-14.12349 -5.304521,-3.93706 -11.592585,-7.50828 -14.619055,-13.38015 -2.173069,-4.21613 -2.540325,-9.44925 -1.734464,-14.1235 z"
      id="path27" />
    <path
      style="fill:none;stroke:#85eac5;stroke-width:2.64583325;stroke-linecap:round;stroke-linejoin:round;stroke-miterlimit:4;stroke-dasharray:none;stroke-opacity:1"
      d="m 5.0942371,261.71504 c 48.8185059,0.19632 22.3201039,24.70052 78.5772409,25.12333"
      id="path1623" />
    <rect
      style="opacity:1;fill:url(#linearGradient2606);fill-opacity:1;stroke:none;stroke-width:1.05833328;stroke-linecap:round;stroke-linejoin:round;stroke-miterlimit:4;stroke-dasharray:none;stroke-dashoffset:19.20000076;stroke-opacity:1;paint-order:stroke markers fill"
      id="rect29"
      width="7.4334178"
      height="54.51173"
      x="169.84686"
      y="149.42448"
      ry="3.7167089"
      transform="rotate(37.234833)" />
    <circle
      cy="210.13715"
      cx="47.155773"
      id="ellipse33"
      style="opacity:1;fill:#1c3cc5;fill-opacity:1;stroke:none;stroke-width:1.05833328;stroke-linecap:round;stroke-linejoin:round;stroke-miterlimit:4;stroke-dasharray:none;stroke-dashoffset:19.20000076;stroke-opacity:1;paint-order:stroke markers fill"
      r="6.8403049" />
    <rect
      style="opacity:1;fill:#009cfd;fill-opacity:1;stroke:none;stroke-width:1.05833328;stroke-linecap:round;stroke-linejoin:round;stroke-miterlimit:4;stroke-dasharray:none;stroke-dashoffset:19.20000076;stroke-opacity:1;paint-order:stroke markers fill"
      id="rect35"
      width="2.7255864"
      height="29.485889"
      x="73.411751"
      y="204.99902"
      ry="1.3627932"
      transform="rotate(12.520632)" />
    <rect
      ry="1.3627932"
      y="253.07298"
      x="14.206799"
      height="29.485889"
      width="2.7255864"
      id="rect37"
      style="opacity:1;fill:#ff4e1a;fill-opacity:1;stroke:none;stroke-width:1.05833328;stroke-linecap:round;stroke-linejoin:round;stroke-miterlimit:4;stroke-dasharray:none;stroke-dashoffset:19.20000076;stroke-opacity:1;paint-order:stroke markers fill"
      transform="rotate(-16.84868)" />
    <g
      style="stroke-width:1.29725885;stroke-miterlimit:4;stroke-dasharray:none"
      transform="matrix(0.61301895,0,0,0.61071739,15.292958,37.787602)"
      id="g891">
      <path
        style="fill:none;fill-opacity:1;stroke:#000000;stroke-width:1.29725885;stroke-linecap:round;stroke-linejoin:round;stroke-miterlimit:4;stroke-dasharray:none;stroke-opacity:1"
        d="m 48.701082,286.28847 c 1.199177,-2.25071 1.345654,-4.69141 1.742914,-7.01577 0.643396,-4.72933 4.202006,-7.32705 8.241372,-8.89076 9.493492,-3.59467 17.865742,2.94244 18.680832,12.69203 -4.948878,-5.82032 -9.880591,-10.50545 -17.493859,-8.59251 -8.722384,3.05109 -3.837601,12.82946 -10.705817,16.65603 -2.476581,1.25717 -4.498573,1.36629 -6.765797,0.37619 -3.539145,-1.68388 -4.417015,-3.8936 -5.151625,-7.04203 -0.528739,-2.05982 -0.94346,-3.99563 -1.791312,-6.18847 -0.669858,-1.69849 -1.934387,-2.38919 -1.934387,-2.38919 0,0 0.493329,0.12657 1.067339,0.3101 1.203502,0.29243 2.106896,1.0588 2.832927,1.90608 1.93789,2.27563 2.600459,5.04296 3.685464,7.16654 1.551759,2.69397 6.144364,3.51963 7.591949,1.01176 z"
        id="path48" />
    </g>
    <rect
      transform="rotate(12.520632)"
      ry="1.3627932"
      y="195.64424"
      x="67.45575"
      height="37.979774"
      width="2.6953845"
      id="rect1613"
      style="opacity:1;fill:#009cfd;fill-opacity:1;stroke:none;stroke-width:1.05833328;stroke-linecap:round;stroke-linejoin:round;stroke-miterlimit:4;stroke-dasharray:none;stroke-dashoffset:19.20000076;stroke-opacity:1;paint-order:stroke markers fill" />
    <rect
      transform="matrix(0.94196076,0.33572299,-0.22766301,0.97373998,0,0)"
      style="opacity:1;fill:#ff4e1a;fill-opacity:1;stroke:none;stroke-width:1.06170607;stroke-linecap:round;stroke-linejoin:round;stroke-miterlimit:4;stroke-dasharray:none;stroke-dashoffset:19.20000076;stroke-opacity:1;paint-order:stroke markers fill"
      id="rect1615"
      width="2.7757962"
      height="42.536522"
      x="64.76313"
      y="182.52879"
      ry="1.8246411" />
    <rect
      transform="rotate(12.520632)"
      ry="1.3627932"
      y="202.41307"
      x="56.700939"
      height="29.485889"
      width="2.7255864"
      id="rect1619"
      style="opacity:1;fill:#009cfd;fill-opacity:1;stroke:none;stroke-width:1.05833328;stroke-linecap:round;stroke-linejoin:round;stroke-miterlimit:4;stroke-dasharray:none;stroke-dashoffset:19.20000076;stroke-opacity:1;paint-order:stroke markers fill" />
    <path
      id="path1621"
      d="m 16.036171,250.78383 h 13.363476 c 14.088811,0 27.530737,-5.34737 37.685004,-15.50163 5.948764,-5.94877 15.814733,-25.3906 25.123335,-25.3906"
      style="fill:none;stroke:#ff4e1a;stroke-width:2.64583325;stroke-linecap:round;stroke-linejoin:round;stroke-miterlimit:4;stroke-dasharray:none;stroke-opacity:1" />
    <circle
      style="opacity:1;fill:url(#pattern2334);fill-opacity:1;stroke:none;stroke-width:1.05833328;stroke-linecap:round;stroke-linejoin:round;stroke-miterlimit:4;stroke-dasharray:none;stroke-dashoffset:19.20000076;stroke-opacity:1;paint-order:stroke markers fill"
      id="path31"
      cx="-9.7081394"
      cy="261.31543"
      r="12.291478"
      transform="rotate(-18.978863)" />
    <rect
      ry="3.0735948"
      y="267.10641"
      x="79.892097"
      height="6.1471896"
      width="9.3544321"
      id="rect1625"
      style="opacity:1;fill:#ff4e1a;fill-opacity:1;stroke:none;stroke-width:2.64583325;stroke-linecap:round;stroke-linejoin:round;stroke-miterlimit:4;stroke-dasharray:none;stroke-dashoffset:19.20000076;stroke-opacity:1;paint-order:stroke markers fill" />
    <rect
      style="opacity:1;fill:#85eac5;fill-opacity:1;stroke:none;stroke-width:2.64583325;stroke-linecap:round;stroke-linejoin:round;stroke-miterlimit:4;stroke-dasharray:none;stroke-dashoffset:19.20000076;stroke-opacity:1;paint-order:stroke markers fill"
      id="rect1627"
      width="9.3544321"
      height="6.1471896"
      x="79.892097"
      y="273.82056"
      ry="3.0735948" />
    <rect
      style="opacity:1;fill:#008cfa;fill-opacity:1;stroke:none;stroke-width:2.64583325;stroke-linecap:round;stroke-linejoin:round;stroke-miterlimit:4;stroke-dasharray:none;stroke-dashoffset:19.20000076;stroke-opacity:1;paint-order:stroke markers fill"
      id="rect1649"
      width="9.3544321"
      height="6.1471896"
      x="89.781075"
      y="273.82056"
      ry="3.0735948" />
    <rect
      style="opacity:1;fill:#ff4e1a;fill-opacity:1;stroke:none;stroke-width:2.64583325;stroke-linecap:round;stroke-linejoin:round;stroke-miterlimit:4;stroke-dasharray:none;stroke-dashoffset:19.20000076;stroke-opacity:1;paint-order:stroke markers fill"
      id="rect1651"
      width="9.3544321"
      height="6.1471896"
      x="89.781075"
      y="280.62387"
      ry="3.0735948" />
  </g>
</svg>
