<?xml version="1.0" encoding="UTF-8" standalone="no"?>
<svg
   xmlns:svg="http://www.w3.org/2000/svg"
   xmlns="http://www.w3.org/2000/svg"
   width="252.01569"
   height="77.90815"
   id="svg4137"
   version="1.1"
   viewBox="0 0 236.26471 73.038882">
  <defs
     id="defs859" />
  <g
     id="layer1"
     transform="translate(-44.274857,-919.68672)"
     style="display:none">
    <g
       id="g4225"
       transform="translate(3.8768824,10.015978)">
      <g
         transform="translate(0,-3.2503736)"
         id="g4294">
        <g
           id="g4259"
           transform="translate(0,8.1499165)">
          <g
             id="g4239"
             transform="translate(0,-3.2997563)" />
          <g
             id="g4219" />
        </g>
        <g
           id="g4319">
          <g
             transform="translate(70.710679,29.168155)"
             id="g4324" />
        </g>
      </g>
    </g>
    <rect
       transform="scale(-1,1)"
       y="861.02368"
       x="-333.07086"
       height="191.33858"
       width="333.07086"
       id="rect4350"
       style="fill:#ffffff;fill-opacity:1;stroke:none;stroke-width:7.087;stroke-linecap:square;stroke-linejoin:miter;stroke-miterlimit:4;stroke-dasharray:none;stroke-dashoffset:0;stroke-opacity:1" />
  </g>
  <g
     id="layer3"
     style="display:none"
     transform="translate(-44.274857,-58.663033)">
    <rect
       style="display:inline;fill:#e6f5fe;fill-opacity:1;stroke:none;stroke-width:7.087;stroke-linecap:square;stroke-linejoin:miter;stroke-miterlimit:4;stroke-dasharray:none;stroke-dashoffset:0;stroke-opacity:1"
       id="rect4145"
       width="318.89764"
       height="177.16536"
       x="-325.98425"
       y="7.0866117"
       transform="scale(-1,1)" />
  </g>
  <g
     id="layer2"
     style="display:inline"
     transform="translate(-44.274857,-58.663033)">
    <g
       style="display:inline"
       transform="matrix(0.17890043,0,0,0.17890043,11.226534,-21.14344)"
       id="layer3-16" />
    <path
       id="path43267"
       style="font-style:normal;font-variant:normal;font-weight:normal;font-stretch:normal;font-size:40px;line-height:108%;font-family:'Open Sans';-inkscape-font-specification:'Open Sans';letter-spacing:2px;word-spacing:0px;fill:#ffffff;fill-opacity:1;stroke:none;stroke-width:0.956901px;stroke-linecap:butt;stroke-linejoin:miter;stroke-opacity:1"
       d="m 110.92773,68.595703 v 28.28125 h 4.13477 V 86.130859 h 2.73633 c 3.58087,0 6.39346,-0.753793 8.38867,-2.326171 v -0.002 c 2.00653,-1.5841 3.02344,-3.892389 3.02344,-6.767578 0,-2.756485 -0.91706,-4.927693 -2.7461,-6.349609 -1.82903,-1.421889 -4.49866,-2.089844 -7.97461,-2.089844 z m 26.98438,0 v 28.28125 h 16.1875 v -3.798828 h -12.05469 v -9.097656 h 11.32617 V 80.220703 H 142.04492 V 72.375 h 12.05469 v -3.779297 z m 25.7207,0 v 28.28125 h 3.89063 V 80.867188 c 0,-1.798801 -0.11107,-3.84505 -0.23828,-5.925782 l 14.28515,21.935547 h 4.36328 v -28.28125 h -3.92968 v 16.158203 c -0.0253,0.815164 0.009,2.117443 0.0957,3.947266 0.046,0.958776 0.0592,1.163543 0.0879,1.710937 L 167.95898,68.595703 Z m -48.57031,3.705078 h 3.07227 c 2.448,0 4.192,0.442681 5.24609,1.230469 1.05854,0.791126 1.58203,1.952057 1.58203,3.654297 0,1.906059 -0.56446,3.172684 -1.6875,3.984375 -1.12111,0.810312 -3.06768,1.27539 -5.83203,1.27539 h -2.38086 z m 62.33203,37.240239 c -2.94007,0 -5.533,0.58133 -7.75391,1.75586 -2.22293,1.16316 -3.94441,2.87197 -5.13281,5.09374 v 0.002 c -1.17524,2.20841 -1.75781,4.77714 -1.75781,7.68164 0,4.51854 1.18327,8.10818 3.58594,10.67969 l 0.002,0.002 c 2.40281,2.55867 5.78049,3.83203 10.01172,3.83203 1.98776,0 3.74229,-0.11757 5.26953,-0.35937 1.51909,-0.24054 3.01231,-0.59617 4.48047,-1.06446 l 0.33398,-0.10547 V 122.94141 H 176.1875 v 3.79882 h 6.11133 v 7.53125 c -1.65421,0.37086 -3.34184,0.57618 -5.07227,0.57618 -3.40157,0 -5.89484,-0.91622 -7.5957,-2.71094 -1.68793,-1.79416 -2.56055,-4.45279 -2.56055,-8.0625 0,-3.42876 0.90172,-6.03563 2.67383,-7.91406 1.77176,-1.87807 4.2136,-2.82032 7.44531,-2.82032 2.20687,0 4.63289,0.2635 6.9336,1.53125 l 0.43554,0.1836 1.61719,-3.67774 -0.44531,-0.1914 c -2.57817,-1.09765 -5.10709,-1.55192 -8.33594,-1.64453 z m -99.960936,0.39257 v 28.28125 h 16.189453 v -3.83593 H 81.566406 v -24.44532 z m 54.666016,0 v 28.28125 h 3.89258 v -16.00976 c 0,-1.79872 -0.11322,-3.84503 -0.24024,-5.92578 l 14.28516,21.93554 h 4.36328 v -28.28125 h -3.92773 v 16.16016 c -0.0253,0.81516 0.007,2.11744 0.0937,3.94727 0.046,0.95918 0.0611,1.16151 0.0898,1.70898 l -14.23047,-21.81641 z m 61.66992,0 v 28.28125 h 16.1875 v -3.79687 h -12.05469 v -9.09961 h 11.32618 v -3.75977 h -11.32618 v -7.8457 h 12.05469 v -3.7793 z m 20.16211,0 0.22852,0.64063 9.9082,27.64062 h 3.81055 l 10.19531,-28.28125 h -4.43945 l -6.35352,17.88477 c 0,0 0,0.002 0,0.002 -0.51133,1.41957 -0.93111,2.84491 -1.30664,4.27149 -0.36024,-1.36372 -0.76592,-2.74287 -1.26953,-4.15821 l -6.39258,-18 z m 29.77148,0 v 0.47852 27.80273 h 4.13477 v -28.28125 z m 10.08399,0 v 3.7793 h 8.6543 v 24.50195 h 4.13476 v -24.50195 h 8.65235 v -3.7793 z m 22.41211,0 0.3789,0.70508 9.04493,16.77149 v 10.80468 h 4.17187 v -10.95312 l 9.44727,-17.32813 h -4.53125 l -7,13.1211 -6.94532,-13.1211 z"
       transform="scale(0.93749998)" />
    <path
       id="rect924"
       style="fill:#ff4f19;fill-opacity:1;stroke:none;stroke-width:1.85656;stroke-linecap:round;stroke-linejoin:round"
       d="m 189.34119,58.663033 h 83.64855 c 4.09654,0 7.39448,3.297937 7.39448,7.394478 v 21.398543 c 0,4.096541 -3.29794,7.394479 -7.39448,7.394479 h -83.64855 c -4.09654,0 -7.39447,-3.297938 -7.39447,-7.394479 V 66.057511 c 0,-4.096541 3.29793,-7.394478 7.39447,-7.394478 z" />
    <g
       aria-label="genes"
       id="text928"
       style="font-style:normal;font-weight:normal;font-size:27.4398px;line-height:1.25;font-family:sans-serif;fill:#ffffff;fill-opacity:1;stroke:none;stroke-width:0.685994">
      <path
         d="m 205.03142,82.740679 q 0,3.805129 -1.72838,5.587108 -1.72839,1.781979 -5.31914,1.781979 -1.19246,0 -2.33132,-0.174178 -1.12546,-0.16078 -2.22412,-0.468942 v -2.572481 h 0.13398 q 0.61633,0.24117 1.95616,0.589527 1.33984,0.361755 2.67967,0.361755 1.28624,0 2.13034,-0.308162 0.84409,-0.308162 1.31303,-0.857494 0.46894,-0.522535 0.66992,-1.259444 0.20097,-0.736909 0.20097,-1.647996 v -1.36663 q -1.13885,0.911087 -2.18392,1.36663 -1.03168,0.442146 -2.63948,0.442146 -2.67967,0 -4.26067,-1.929361 -1.56761,-1.94276 -1.56761,-5.466523 0,-1.929361 0.53594,-3.322788 0.54933,-1.406826 1.48721,-2.4251 0.8709,-0.951282 2.11694,-1.473817 1.24605,-0.535934 2.47869,-0.535934 1.29964,0 2.17054,0.267967 0.88429,0.254568 1.86236,0.790502 l 0.16078,-0.64312 h 2.35811 z m -2.51889,-2.411701 v -8.159589 q -1.00487,-0.455544 -1.87576,-0.64312 -0.8575,-0.200975 -1.71499,-0.200975 -2.07674,0 -3.2692,1.393427 -1.19245,1.393427 -1.19245,4.046299 0,2.518887 0.88429,3.818526 0.88429,1.299639 2.93424,1.299639 1.09866,0 2.19733,-0.415348 1.11206,-0.428747 2.03654,-1.138859 z"
         style="fill:#ffffff;stroke-width:0.685994"
         id="path889" />
      <path
         d="m 222.51626,77.220563 h -11.02684 q 0,1.380029 0.41535,2.411701 0.41535,1.018274 1.13886,1.674793 0.69671,0.64312 1.64799,0.96468 0.96469,0.32156 2.11694,0.32156 1.52741,0 3.06822,-0.602925 1.55421,-0.616323 2.21073,-1.20585 h 0.13398 v 2.746659 q -1.27284,0.535934 -2.59928,0.897689 -1.32643,0.361755 -2.78685,0.361755 -3.72474,0 -5.81488,-2.009751 -2.09014,-2.023149 -2.09014,-5.734489 0,-3.671145 1.99635,-5.828278 2.00975,-2.157133 5.27895,-2.157133 3.02802,0 4.66262,1.768581 1.648,1.768581 1.648,5.024377 z m -2.4519,-1.929361 q -0.0134,-1.982954 -1.00488,-3.06822 -0.97808,-1.085265 -2.98783,-1.085265 -2.02315,0 -3.229,1.192452 -1.19245,1.192452 -1.35323,2.961033 z"
         style="fill:#ffffff;stroke-width:0.685994"
         id="path891" />
      <path
         d="m 238.84883,84.442268 h -2.51889 v -8.521344 q 0,-1.031672 -0.12058,-1.929361 -0.12059,-0.911087 -0.44215,-1.420224 -0.33496,-0.56273 -0.96468,-0.830697 -0.62972,-0.281365 -1.6346,-0.281365 -1.03167,0 -2.15713,0.509137 -1.12546,0.509137 -2.15713,1.299639 v 11.174215 h -2.51889 V 69.476323 h 2.51889 v 1.661394 q 1.17905,-0.978079 2.4385,-1.527411 1.25944,-0.549332 2.58588,-0.549332 2.42509,0 3.69794,1.460419 1.27284,1.460419 1.27284,4.207079 z"
         style="fill:#ffffff;stroke-width:0.685994"
         id="path893" />
      <path
         d="m 256.22648,77.220563 h -11.02684 q 0,1.380029 0.41535,2.411701 0.41535,1.018274 1.13886,1.674793 0.69672,0.64312 1.648,0.96468 0.96468,0.32156 2.11693,0.32156 1.52742,0 3.06822,-0.602925 1.55421,-0.616323 2.21073,-1.20585 h 0.13398 v 2.746659 q -1.27284,0.535934 -2.59927,0.897689 -1.32644,0.361755 -2.78686,0.361755 -3.72474,0 -5.81488,-2.009751 -2.09014,-2.023149 -2.09014,-5.734489 0,-3.671145 1.99635,-5.828278 2.00975,-2.157133 5.27895,-2.157133 3.02802,0 4.66262,1.768581 1.648,1.768581 1.648,5.024377 z m -2.4519,-1.929361 q -0.0134,-1.982954 -1.00487,-3.06822 -0.97808,-1.085265 -2.98783,-1.085265 -2.02315,0 -3.229,1.192452 -1.19246,1.192452 -1.35324,2.961033 z"
         style="fill:#ffffff;stroke-width:0.685994"
         id="path895" />
      <path
         d="m 270.73688,80.128003 q 0,2.049946 -1.70159,3.362983 -1.68819,1.313038 -4.62242,1.313038 -1.6614,0 -3.05483,-0.388552 -1.38002,-0.401951 -2.31791,-0.870892 v -2.82705 h 0.13399 q 1.19245,0.897689 2.65287,1.433622 1.46042,0.522535 2.80025,0.522535 1.66139,0 2.59928,-0.535933 0.93788,-0.535934 0.93788,-1.688191 0,-0.88429 -0.50914,-1.339834 -0.50913,-0.455543 -1.95615,-0.777104 -0.53594,-0.120585 -1.40683,-0.281365 -0.85749,-0.16078 -1.5676,-0.348357 -1.96956,-0.522535 -2.80026,-1.52741 -0.8173,-1.018274 -0.8173,-2.492092 0,-0.924485 0.37516,-1.741784 0.38855,-0.817299 1.16565,-1.460419 0.75031,-0.629722 1.90257,-0.991477 1.16565,-0.375154 2.59928,-0.375154 1.33983,0 2.70646,0.334959 1.38003,0.32156 2.29112,0.790502 v 2.693066 h -0.13399 q -0.96468,-0.710112 -2.34471,-1.192452 -1.38003,-0.495739 -2.70646,-0.495739 -1.38003,0 -2.33131,0.535934 -0.95128,0.522535 -0.95128,1.567606 0,0.924485 0.57612,1.393427 0.56273,0.468942 1.82218,0.763706 0.69671,0.16078 1.55421,0.32156 0.87089,0.16078 1.44702,0.294763 1.75518,0.40195 2.70646,1.380029 0.95128,0.991477 0.95128,2.626075 z"
         style="fill:#ffffff;stroke-width:0.685994"
         id="path897" />
    </g>
    <path
       style="font-style:normal;font-variant:normal;font-weight:normal;font-stretch:normal;font-size:40px;line-height:108%;font-family:'Open Sans';-inkscape-font-specification:'Open Sans';letter-spacing:2px;word-spacing:0px;display:inline;fill:#ffffff;fill-opacity:1;stroke:none;stroke-width:0.897095px;stroke-linecap:butt;stroke-linejoin:miter;stroke-opacity:1"
       d="m 83.249092,62.194729 c -8.37909,0 -15.208856,6.831135 -15.208856,15.210227 0,1.285026 0.162178,2.532915 0.464387,3.726073 l -8.692342,4.237787 c -1.621217,-1.917207 -4.039496,-3.142327 -6.726413,-3.142327 -4.840594,0 -8.811011,3.973167 -8.811011,8.813757 8e-6,4.84058 3.970417,8.81102 8.811011,8.81101 4.840585,0 8.813746,-3.97043 8.813755,-8.81101 0,-0.55419 -0.05484,-1.09617 -0.154339,-1.62296 l 8.497533,-4.14244 c 2.670913,4.39478 7.504435,7.34034 13.006275,7.34034 1.90582,0 3.73,-0.35685 5.4135,-1.00149 l 5.99726,12.700344 c -3.70814,2.77797 -6.11387,7.20551 -6.11387,12.17902 0,8.37909 6.82908,15.20886 15.208168,15.20886 8.37909,0 15.21023,-6.82977 15.21023,-15.20886 0,-8.37908 -6.83114,-15.21022 -15.21023,-15.21022 -1.80343,0 -3.53396,0.31836 -5.141178,0.89859 l -6.03498,-12.780604 c 3.57421,-2.78714 5.88132,-7.128819 5.88133,-11.99587 0,-8.379092 -6.83114,-15.210227 -15.21023,-15.210227 z m 0,3.537437 c 6.46749,0 11.67279,5.2053 11.67279,11.67279 0,6.467485 -5.2053,11.67279 -11.67279,11.67279 -6.46748,0 -11.670733,-5.205305 -11.670733,-11.67279 0,-6.46749 5.203253,-11.67279 11.670733,-11.67279 z m 20.505058,39.088104 c 6.46749,0 11.67279,5.20531 11.67279,11.67279 0,6.46749 -5.2053,11.67142 -11.67279,11.67142 -6.467478,0 -11.672788,-5.20393 -11.672788,-11.67142 0,-6.46748 5.20531,-11.67279 11.672788,-11.67279 z"
       id="path4170" />
  </g>
</svg>
