<?xml version="1.0" encoding="UTF-8" standalone="no"?>
<svg
   xmlns:dc="http://purl.org/dc/elements/1.1/"
   xmlns:cc="http://creativecommons.org/ns#"
   xmlns:rdf="http://www.w3.org/1999/02/22-rdf-syntax-ns#"
   xmlns:svg="http://www.w3.org/2000/svg"
   xmlns="http://www.w3.org/2000/svg"
   xmlns:sodipodi="http://sodipodi.sourceforge.net/DTD/sodipodi-0.dtd"
   xmlns:inkscape="http://www.inkscape.org/namespaces/inkscape"
   id="svg8"
   version="1.1"
   viewBox="0 0 39.6875 39.687501"
   height="150"
   width="150"
   sodipodi:docname="no-content-language.svg"
   inkscape:version="1.0.1 (c497b03c, 2020-09-10)">
  <metadata
     id="metadata847">
    <rdf:RDF>
      <cc:Work
         rdf:about="">
        <dc:format>image/svg+xml</dc:format>
        <dc:type
           rdf:resource="http://purl.org/dc/dcmitype/StillImage" />
      </cc:Work>
    </rdf:RDF>
  </metadata>
  <sodipodi:namedview
     pagecolor="#ffffff"
     bordercolor="#666666"
     borderopacity="1"
     objecttolerance="10"
     gridtolerance="10"
     guidetolerance="10"
     inkscape:pageopacity="0"
     inkscape:pageshadow="2"
     inkscape:window-width="2048"
     inkscape:window-height="1152"
     id="namedview845"
     showgrid="false"
     inkscape:zoom="6.5733333"
     inkscape:cx="62.981744"
     inkscape:cy="80.172414"
     inkscape:window-x="0"
     inkscape:window-y="0"
     inkscape:window-maximized="0"
     inkscape:current-layer="layer1" />
  <defs
     id="defs2" />
  <g
     transform="translate(0,-257.31248)"
     id="layer1">
    <circle
       cy="277.15622"
       cx="19.84375"
       id="path4747"
       style="opacity:1;fill:#eef3f7;fill-opacity:1;stroke:none;stroke-width:0.559201;stroke-linecap:round;stroke-linejoin:round;stroke-miterlimit:4;stroke-dasharray:none;stroke-dashoffset:0;stroke-opacity:1;paint-order:stroke markers fill"
       r="19.84375" />
    <circle
       style="fill:#6d85f2;fill-opacity:1;stroke:none;stroke-width:0.621453;stroke-linecap:round;stroke-linejoin:round"
       id="path871"
       cx="19.84375"
       cy="277.15622"
       r="12.7" />
    <ellipse
       ry="5.0685649"
       rx="4.9486055"
       cy="272.85883"
       cx="21.79002"
       id="path4793"
       style="opacity:1;fill:#bccef7;fill-opacity:1;stroke:none;stroke-width:0.858641;stroke-linecap:round;stroke-linejoin:round;stroke-miterlimit:4;stroke-dasharray:none;stroke-dashoffset:0;stroke-opacity:1;paint-order:stroke markers fill" />
    <g
       transform="matrix(0.77214688,0,0,0.77214688,4.3916716,72.018217)"
       id="g4763" />
    <ellipse
       ry="2.7504625"
       rx="2.7383275"
       cy="276.72424"
       cx="27.0117"
       id="path4795"
       style="opacity:1;fill:#ffdd6f;fill-opacity:0.941176;stroke:none;stroke-width:0.606107;stroke-linecap:round;stroke-linejoin:round;stroke-miterlimit:4;stroke-dasharray:none;stroke-dashoffset:0;stroke-opacity:1;paint-order:stroke markers fill" />
    <path
       style="fill:#eef3f7;fill-opacity:1;stroke-width:0.0349032"
       d="m 19.180954,290.11249 c -0.792216,-0.0671 -1.096976,-0.10188 -1.519981,-0.1737 -3.719867,-0.63116 -7.001883,-2.87585 -8.9519953,-6.12258 -0.9839352,-1.63815 -1.5867941,-3.4632 -1.7865797,-5.40856 -0.057641,-0.56125 -0.057641,-1.95124 0,-2.5125 0.3191693,-3.10782 1.6494262,-5.86475 3.877343,-8.0357 2.128785,-2.07434 4.801974,-3.31852 7.787738,-3.62465 0.561652,-0.0576 1.952204,-0.0576 2.513541,4e-5 2.996,0.30744 5.661177,1.54932 7.798137,3.63366 2.217545,2.16295 3.534139,4.89529 3.867682,8.02665 0.05553,0.52136 0.05527,1.99937 -4.52e-4,2.5125 -0.342758,3.15645 -1.649592,5.86462 -3.877629,8.03569 -2.092811,2.03929 -4.70533,3.27546 -7.613187,3.60233 -0.458204,0.0516 -1.77817,0.0936 -2.094617,0.0669 z m 1.347591,-5.81436 c 0.260379,-0.14255 0.338477,-0.30836 1.241796,-2.63643 l 0.138785,-0.35768 h 2.574544 2.574544 l 0.486248,1.34825 c 0.42202,1.17015 0.50385,1.36825 0.619515,1.49982 0.08139,0.0926 0.183315,0.16613 0.261827,0.18892 0.07995,0.0232 0.43385,0.0334 0.936063,0.0268 l 0.807504,-0.0104 -2.348294,-5.91487 -2.348293,-5.91487 -0.990205,-0.009 -0.990206,-0.009 -2.32882,5.87159 c -1.280851,3.22938 -2.339499,5.90036 -2.35255,5.93553 -0.02266,0.0611 0.01326,0.0634 0.792766,0.0524 0.687486,-0.0102 0.833609,-0.0209 0.924776,-0.071 z m 1.984868,-4.45102 c 0.0129,-0.0336 0.389695,-1.03467 0.837323,-2.22462 0.791259,-2.10344 0.975924,-2.62039 1.078275,-3.01849 0.02782,-0.10818 0.05779,-0.16909 0.06869,-0.13959 0.01064,0.0288 0.06907,0.21722 0.129829,0.41874 0.06076,0.20154 0.501795,1.40497 0.980071,2.6743 0.478278,1.26933 0.869595,2.31752 0.869595,2.32931 0,0.0117 -0.897128,0.0214 -1.99362,0.0214 -1.884348,0 -1.992336,-0.003 -1.970168,-0.061 z m -11.457014,0.377 c 1.49436,-0.54649 3.117267,-1.33791 4.45848,-2.17421 l 0.296242,-0.18472 0.506694,0.31387 c 0.278683,0.17262 0.820887,0.47211 1.204901,0.66553 0.699947,0.35254 1.730458,0.78501 1.896833,0.796 0.08388,0.005 0.102783,-0.0298 0.342233,-0.63969 0.139397,-0.35507 0.254252,-0.66395 0.255234,-0.6864 9.81e-4,-0.0225 -0.0807,-0.068 -0.181494,-0.10116 -0.68945,-0.22725 -2.161479,-0.94666 -2.687987,-1.31369 l -0.0959,-0.0669 0.241716,-0.27418 c 1.172408,-1.32994 2.087773,-3.07804 2.539305,-4.84938 l 0.09798,-0.38435 0.995388,-0.009 0.995387,-0.009 0.0094,-0.68918 0.0094,-0.68921 h -2.422038 -2.422096 l -0.217403,-0.5845 c -0.119572,-0.32148 -0.281212,-0.77294 -0.359201,-1.00326 -0.07798,-0.23032 -0.153993,-0.4325 -0.168897,-0.44929 -0.01494,-0.0168 -0.365415,0.0848 -0.781541,0.22683 -0.585098,0.19958 -0.750766,0.2691 -0.738067,0.3097 0.009,0.0288 0.133987,0.34285 0.277734,0.69792 0.143749,0.35507 0.271534,0.68091 0.283968,0.72409 0.02261,0.0785 0.02261,0.0785 -2.929662,0.0785 H 9.5108083 v 0.69792 0.69793 h 1.1128187 1.112821 l 0.09349,0.37293 c 0.433948,1.73109 1.284787,3.35965 2.482394,4.75148 0.265773,0.30887 0.33,0.40306 0.291883,0.42806 -0.255911,0.16785 -1.023693,0.58208 -1.572821,0.84857 -1.005631,0.48803 -2.074701,0.89031 -3.027452,1.1392 -0.2232196,0.0583 -0.4261366,0.11271 -0.4509252,0.1209 -0.030483,0.0102 0.010342,0.097 0.1261423,0.2685 0.094166,0.13949 0.2771353,0.42632 0.4065989,0.63739 0.337537,0.55033 0.33105,0.54081 0.368759,0.54081 0.01894,0 0.289784,-0.0934 0.601885,-0.20751 z m 4.494228,-4.63199 c -0.710536,-0.75923 -1.341596,-1.74231 -1.761424,-2.74397 -0.174534,-0.41641 -0.416088,-1.1479 -0.454406,-1.37607 l -0.02491,-0.14831 h 2.502223 2.502221 l -0.02447,0.14831 c -0.04399,0.26659 -0.260687,0.97737 -0.422907,1.38712 -0.398836,1.0074 -1.05689,2.01518 -1.784537,2.73292 l -0.276527,0.27278 z"
       id="path863" />
  </g>
</svg>
