<?xml version="1.0" encoding="UTF-8" standalone="no"?>
<svg
   xmlns:svg="http://www.w3.org/2000/svg"
   xmlns="http://www.w3.org/2000/svg"
   version="1.1"
   id="svg833"
   xml:space="preserve"
   width="60"
   height="42"
   viewBox="0 0 60 42">
  <path
   id="path845"
   fill="#fff"
   d="M 0 0 L 0 42 L 59.970703 42 L 60 0.00390625 L 0 0 z M 14.408203 7.2324219 C 17.347054 7.2324219 19.232455 8.1752239 20.394531 9.4238281 L 20.394531 7.7441406 L 24.212891 7.7441406 L 24.212891 18.359375 L 29.029297 12.833984 L 33.714844 12.833984 L 28.597656 18.464844 L 33.851562 27.402344 L 29.273438 27.402344 L 25.806641 21.146484 L 24.212891 22.796875 L 24.208984 27.402344 L 20.394531 27.402344 L 20.394531 26.355469 C 18.50374 27.735938 15.97498 27.916016 14.947266 27.916016 C 7.7995426 27.916016 6.5546875 23.774487 6.5546875 21.337891 L 10.480469 21.337891 C 10.480469 22.447849 11.076564 24.53125 14.650391 24.53125 C 16.599796 24.53125 18.767578 24.045037 18.767578 21.986328 C 18.767578 20.444081 17.277984 20.063363 15.193359 19.548828 L 11.240234 18.576172 C 8.4519703 17.89986 6.8515625 16.244623 6.8515625 13.267578 C 6.8515625 11.101493 8.0455245 7.2324219 14.408203 7.2324219 z M 14.109375 10.613281 C 12.539284 10.613281 10.669922 11.210134 10.669922 12.970703 C 10.669922 14.511522 11.942639 14.837722 12.757812 15.027344 L 17.546875 16.193359 C 18.570375 16.451304 19.558439 16.76898 20.394531 17.257812 L 20.394531 13.591797 L 18.115234 13.591797 C 18.009285 12.699375 17.683273 10.613281 14.109375 10.613281 z M 24.457031 29.773438 L 25.736328 29.773438 L 25.736328 30.960938 L 24.457031 30.960938 L 24.457031 29.773438 z M 7.8046875 29.837891 L 11.125 29.837891 C 11.654527 29.837891 12.071867 29.944354 12.380859 30.15625 C 12.689565 30.36879 12.901849 30.61479 13.017578 30.898438 C 13.13245 31.183156 13.191406 31.449861 13.191406 31.695312 C 13.191406 32.063418 13.101218 32.388799 12.921875 32.671875 C 12.742534 32.955737 12.494554 33.150437 12.175781 33.257812 C 12.381609 33.347052 12.540495 33.443686 12.654297 33.544922 C 12.768099 33.645873 12.855188 33.799726 12.916016 34.009766 C 12.977346 34.219735 13.007813 34.524498 13.007812 34.921875 C 13.007812 35.293336 13.012294 35.556987 13.021484 35.708984 C 13.029884 35.861517 13.05419 35.977158 13.09375 36.056641 C 13.1328 36.136121 13.202328 36.194773 13.300781 36.230469 L 13.300781 36.404297 L 11.78125 36.404297 C 11.68537 36.076336 11.636719 35.634496 11.636719 35.078125 C 11.636719 34.73979 11.617152 34.487613 11.576172 34.322266 C 11.534902 34.157703 11.439132 34.035396 11.289062 33.955078 C 11.138492 33.875048 10.898316 33.833984 10.566406 33.833984 L 9.1484375 33.833984 L 9.1484375 36.404297 L 7.8046875 36.404297 L 7.8046875 29.837891 z M 30.09375 29.837891 L 31.373047 29.837891 L 31.373047 36.404297 L 30.123047 36.404297 L 30.123047 35.792969 L 30.105469 35.792969 C 29.823749 36.285193 29.35342 36.53125 28.695312 36.53125 C 28.237893 36.53125 27.853914 36.411154 27.544922 36.169922 C 27.236216 35.928682 27.009139 35.608886 26.863281 35.210938 C 26.717638 34.812703 26.644531 34.380361 26.644531 33.916016 C 26.644531 33.510785 26.699261 33.148565 26.806641 32.830078 C 26.914517 32.512162 27.062591 32.249602 27.25 32.039062 C 27.438194 31.82845 27.652435 31.670427 27.894531 31.566406 C 28.136342 31.463528 28.393292 31.412109 28.666016 31.412109 C 29.279574 31.412109 29.749831 31.664337 30.076172 32.171875 L 30.09375 32.171875 L 30.09375 29.837891 z M 43.341797 30.222656 L 44.621094 30.222656 L 44.621094 31.539062 L 45.417969 31.539062 L 45.417969 32.455078 L 44.621094 32.455078 L 44.621094 35.097656 C 44.621094 35.211172 44.630847 35.292464 44.648438 35.341797 C 44.666567 35.390917 44.711765 35.427133 44.785156 35.453125 C 44.859046 35.478185 44.981142 35.490234 45.152344 35.490234 C 45.207604 35.490234 45.2961 35.484636 45.417969 35.472656 L 45.417969 36.439453 C 45.115902 36.452843 44.915404 36.458984 44.814453 36.458984 L 44.650391 36.458984 C 44.297563 36.458984 44.026986 36.418487 43.835938 36.333984 C 43.644959 36.250314 43.513636 36.131625 43.445312 35.980469 C 43.376993 35.82848 43.341797 35.637448 43.341797 35.408203 L 43.341797 32.455078 L 42.683594 32.455078 L 42.683594 31.539062 L 43.341797 31.539062 L 43.341797 30.222656 z M 9.1484375 30.970703 L 9.1484375 32.726562 L 10.757812 32.726562 C 11.120351 32.726562 11.388202 32.65701 11.560547 32.517578 C 11.731749 32.378717 11.818359 32.150519 11.818359 31.832031 C 11.818359 31.603928 11.748812 31.403385 11.609375 31.230469 C 11.469371 31.058125 11.219128 30.970703 10.859375 30.970703 L 9.1484375 30.970703 z M 16.255859 31.412109 C 16.524656 31.412109 16.790934 31.451197 17.052734 31.529297 C 17.315749 31.607327 17.558384 31.742881 17.783203 31.9375 C 18.008236 32.131334 18.190074 32.406704 18.330078 32.763672 C 18.46951 33.121212 18.541016 33.563315 18.541016 34.089844 L 18.541016 34.318359 L 15.203125 34.318359 C 15.221255 34.515834 15.255876 34.695384 15.306641 34.859375 C 15.356831 35.02251 15.464941 35.170824 15.630859 35.304688 C 15.79685 35.43855 16.036665 35.505859 16.347656 35.505859 C 16.533637 35.505859 16.705215 35.458661 16.863281 35.363281 C 17.020847 35.268401 17.12192 35.139412 17.167969 34.976562 L 18.484375 34.976562 C 18.329594 35.5173 18.054198 35.910003 17.65625 36.158203 C 17.258801 36.40641 16.822282 36.53125 16.347656 36.53125 C 15.994829 36.53125 15.670595 36.484052 15.376953 36.390625 C 15.082739 36.297755 14.827769 36.148341 14.609375 35.941406 C 14.391838 35.733643 14.223457 35.455706 14.103516 35.109375 C 13.983575 34.763544 13.921875 34.350192 13.921875 33.869141 C 13.921875 33.665527 13.950576 33.432937 14.003906 33.169922 C 14.057456 32.907765 14.161364 32.640248 14.318359 32.371094 C 14.475425 32.101154 14.714144 31.874862 15.033203 31.689453 C 15.351975 31.504543 15.759958 31.412109 16.255859 31.412109 z M 21.214844 31.412109 C 22.593385 31.412109 23.321786 31.947769 23.400391 33.019531 L 22.150391 33.019531 C 22.116051 32.820129 22.041749 32.663726 21.927734 32.550781 C 21.813932 32.437836 21.600552 32.380859 21.289062 32.380859 C 20.764246 32.380859 20.503906 32.538124 20.503906 32.855469 C 20.503906 33.018675 20.675153 33.14649 21.021484 33.234375 C 21.367314 33.322185 21.737694 33.410187 22.130859 33.5 C 22.523524 33.59067 22.858972 33.73722 23.134766 33.941406 C 23.410845 34.146378 23.548828 34.452788 23.548828 34.859375 C 23.548828 35.292236 23.432391 35.632385 23.199219 35.882812 C 22.96719 36.132976 22.690912 36.303896 22.369141 36.394531 C 22.046156 36.485161 21.728364 36.53125 21.416016 36.53125 C 20.774258 36.53125 20.228266 36.400823 19.777344 36.138672 C 19.326921 35.876529 19.092378 35.446461 19.076172 34.849609 L 20.392578 34.849609 C 20.392577 35.324591 20.747209 35.5625 21.455078 35.5625 C 21.748435 35.5625 21.957949 35.510319 22.082031 35.404297 C 22.20697 35.299205 22.267578 35.183773 22.267578 35.060547 C 22.267578 34.884847 22.08884 34.750229 21.728516 34.658203 C 21.367906 34.566963 21.000102 34.477868 20.625 34.390625 C 20.249041 34.303595 19.926761 34.158647 19.65625 33.957031 C 19.385668 33.755701 19.25 33.449862 19.25 33.039062 C 19.25 32.774121 19.311464 32.518293 19.435547 32.271484 C 19.559629 32.024105 19.770239 31.81967 20.064453 31.65625 C 20.358666 31.493972 20.741575 31.412109 21.214844 31.412109 z M 34.529297 31.412109 C 34.798379 31.412109 35.064014 31.451197 35.326172 31.529297 C 35.588829 31.607327 35.832179 31.742881 36.056641 31.9375 C 36.281673 32.131334 36.463513 32.406704 36.603516 32.763672 C 36.742948 33.121212 36.8125 33.563315 36.8125 34.089844 L 36.8125 34.318359 L 33.476562 34.318359 C 33.494692 34.515834 33.529319 34.695384 33.580078 34.859375 C 33.630268 35.02251 33.738021 35.170824 33.904297 35.304688 C 34.070216 35.43855 34.308507 35.505859 34.619141 35.505859 C 34.805478 35.505859 34.978296 35.458661 35.136719 35.363281 C 35.294285 35.268401 35.395143 35.139412 35.441406 34.976562 L 36.757812 34.976562 C 36.603031 35.5173 36.325683 35.910003 35.927734 36.158203 C 35.530357 36.40641 35.094123 36.53125 34.619141 36.53125 C 34.26667 36.53125 33.943748 36.484052 33.650391 36.390625 C 33.356177 36.297755 33.101207 36.148341 32.882812 35.941406 C 32.665276 35.733643 32.49718 35.455706 32.376953 35.109375 C 32.257369 34.763544 32.195312 34.350192 32.195312 33.869141 C 32.195312 33.665527 32.224364 33.432937 32.277344 33.169922 C 32.331174 32.907765 32.434731 32.640248 32.591797 32.371094 C 32.748506 32.101154 32.987368 31.874862 33.306641 31.689453 C 33.625128 31.504543 34.033467 31.412109 34.529297 31.412109 z M 40.373047 31.412109 C 40.695675 31.412109 40.986455 31.4741 41.242188 31.599609 C 41.498205 31.724263 41.699845 31.908321 41.845703 32.152344 C 41.992131 32.396368 42.0625 32.692732 42.0625 33.039062 L 42.0625 36.404297 L 40.785156 36.404297 L 40.785156 33.449219 C 40.785156 33.281301 40.770364 33.130457 40.740234 32.996094 C 40.709534 32.861374 40.631039 32.743529 40.507812 32.642578 C 40.384231 32.541341 40.19798 32.490234 39.951172 32.490234 C 39.760694 32.490234 39.589498 32.533537 39.4375 32.619141 C 39.286074 32.704241 39.166224 32.831894 39.078125 33.001953 C 38.990595 33.172656 38.947266 33.37735 38.947266 33.615234 L 38.947266 36.404297 L 37.667969 36.404297 L 37.667969 31.539062 L 38.890625 31.539062 L 38.890625 32.251953 L 38.910156 32.251953 C 39.243422 31.691941 39.730219 31.412109 40.373047 31.412109 z M 24.457031 31.539062 L 25.736328 31.539062 L 25.736328 36.404297 L 24.457031 36.404297 L 24.457031 31.539062 z M 16.234375 32.462891 C 15.65016 32.462891 15.318839 32.804447 15.240234 33.486328 L 17.222656 33.486328 C 17.189743 33.12736 17.078554 32.866856 16.886719 32.705078 C 16.69567 32.544157 16.478399 32.462891 16.234375 32.462891 z M 34.507812 32.462891 C 33.923527 32.462891 33.592633 32.804447 33.513672 33.486328 L 35.496094 33.486328 C 35.463467 33.12736 35.352062 32.866856 35.160156 32.705078 C 34.969177 32.544157 34.751836 32.462891 34.507812 32.462891 z M 29.052734 32.519531 C 28.674276 32.519531 28.397785 32.660853 28.222656 32.943359 C 28.048313 33.225577 27.960938 33.580832 27.960938 34.009766 C 27.960938 34.375087 28.044945 34.712752 28.210938 35.019531 C 28.377142 35.327095 28.644424 35.478516 29.013672 35.478516 C 29.396557 35.478516 29.68259 35.345851 29.869141 35.078125 C 30.055979 34.810399 30.150391 34.478052 30.150391 34.082031 C 30.150391 33.039897 29.784234 32.519531 29.052734 32.519531 z " /></svg>
