<?xml version="1.0" encoding="UTF-8" standalone="no"?><svg xmlns="http://www.w3.org/2000/svg" xmlns:xlink="http://www.w3.org/1999/xlink"><symbol viewBox="0 0 39.688 39.688" id="404" xmlns="http://www.w3.org/2000/svg"><g transform="translate(0 -257.312)"><circle r="19.844" cy="277.156" cx="19.844" fill="#eef3f7" paint-order="stroke markers fill"/><g aria-label="404" style="line-height:1.25" font-weight="400" font-size="14.111" font-family="sans-serif" letter-spacing="0" word-spacing="0" fill="#f3714b" fill-opacity=".983" stroke-width=".265" stroke-linecap="round" stroke-linejoin="round"><path d="M13.743 278.773h1.564v.696h-1.564v2.535h-.827v-2.535h-4.72V279l4.645-7.028h.902zm-4.534 0h3.707v-5.733l-.365.634zM22.556 277.822q0 2.122-.779 3.224-.778 1.096-2.294 1.096-1.489 0-2.281-1.075-.792-1.082-.813-3.142v-1.798q0-2.115.785-3.204.786-1.089 2.295-1.089 1.488 0 2.274 1.054.785 1.048.813 3.094zm-.827-1.799q0-1.722-.565-2.604-.558-.882-1.695-.882-1.116 0-1.681.861-.565.862-.58 2.543v1.97q0 1.716.58 2.626.585.909 1.695.909 1.102 0 1.667-.889.572-.889.579-2.604z" style="-inkscape-font-specification:'Roboto Light'" font-weight="300" font-family="Roboto"/><path style="line-height:1.25;font-variant-ligatures:normal;font-variant-position:normal;font-variant-caps:normal;font-variant-numeric:normal;font-variant-alternates:normal;font-feature-settings:normal;text-indent:0;text-align:start;text-decoration-line:none;text-decoration-style:solid;text-decoration-color:#000;text-transform:none;text-orientation:mixed;white-space:normal;shape-padding:0;isolation:auto;mix-blend-mode:normal;solid-color:#000;solid-opacity:1" d="M36.137 265.87a86.996 86.996 0 00-1.14 2.753c-.676 1.68-1.482 3.686-2.376 5.647-.893 1.96-1.876 3.876-2.896 5.367-1.02 1.49-2.085 2.536-3.059 2.814-1.558.445-2.84-.16-4.149-1.025-1.307-.865-2.594-1.99-4.115-2.434-1.52-.444-3.261-.14-5.304 1.744-1.964 1.812-4.257 5.08-7.106 10.603a19.844 19.844 0 00.401.373c2.867-5.575 5.167-8.837 7.064-10.587 1.957-1.805 3.434-2.021 4.797-1.623 1.362.398 2.625 1.474 3.973 2.365 1.347.891 2.827 1.596 4.584 1.094 1.201-.343 2.301-1.492 3.351-3.026 1.05-1.533 2.041-3.471 2.941-5.447.9-1.975 1.708-3.988 2.383-5.668.384-.954.721-1.782 1.01-2.45a19.844 19.844 0 00-.359-.5z" color="#000" font-size="medium" overflow="visible" fill="#6d85f2" fill-opacity="1"/><g transform="translate(68.78 43.219)"><rect width="11.435" height="2.117" x="-47.423" y="243.256" ry=".977" fill="#d0e0f0" fill-opacity="1" paint-order="stroke markers fill"/><rect ry=".977" y="223.917" x="-63.063" height="2.117" width="11.435" fill="#d0e0f0" fill-opacity="1" paint-order="stroke markers fill"/><rect width="2.859" height="2.117" x="46.751" y="223.917" ry=".977" transform="scale(-1 1)" fill="#d0e0f0" fill-opacity="1" paint-order="stroke markers fill"/></g><path d="M29.398 278.773h1.564v.696h-1.564v2.535h-.827v-2.535h-4.72V279l4.644-7.028h.903zm-4.534 0h3.707v-5.733l-.365.634zM20.096 271.89v.73c.45.123.807.387 1.068.799.377.588.565 1.456.565 2.604v1.93c-.005 1.143-.198 2.011-.579 2.604-.263.414-.616.68-1.054.805v.726c.711-.123 1.273-.468 1.681-1.042.519-.735.779-1.81.779-3.224v-1.84c-.019-1.364-.29-2.396-.813-3.094-.407-.546-.957-.877-1.647-.999z" style="-inkscape-font-specification:'Roboto Light'" font-weight="300" font-family="Roboto"/></g></g></symbol><symbol viewBox="0 0 39.688 39.688" id="default" xmlns="http://www.w3.org/2000/svg"><g transform="translate(0 -257.312)"><circle r="19.844" cy="277.156" cx="19.844" fill="#eef3f7" paint-order="stroke markers fill"/><ellipse ry="5.069" rx="4.949" cy="273.463" cx="23.239" fill="#bccef7" paint-order="stroke markers fill"/><ellipse ry="3.283" rx="3.307" cy="278.593" cx="6.563" fill="#d0e0f0" paint-order="stroke markers fill"/><ellipse ry="2.75" rx="2.738" cy="271.371" cx="32.325" fill="#ffdd6f" fill-opacity=".941" paint-order="stroke markers fill"/><path d="M25.163 288.058a2.66 2.66 0 01-1.995-1.204c-.418-.656-.471-1.616-.131-2.352l.16-.348-.163-.268c-.239-.389-1.087-1.17-1.212-1.117-.054.024-.249.076-.433.117-.62.136-1.353-.065-1.84-.505-.247-.222-.256-.225-.673-.205-.5.023-.907.106-1.396.284l-.357.13-.05.345c-.245 1.668-2.213 2.439-3.483 1.362-.509-.43-.75-.934-.767-1.593-.01-.448.059-.72.29-1.13l.19-.338-.139-.278c-.205-.41-.25-.431-.937-.422-.536.008-.64-.009-.93-.147-.44-.209-.856-.605-1.065-1.012-.155-.304-.192-.338-.395-.366-.367-.051-1.1.122-1.097.258.006.21-.339.81-.622 1.085-1.494 1.448-3.995.05-3.546-1.981.284-1.288 1.696-2.035 2.89-1.53.425.18.873.578 1.055.939.134.266.163.288.407.317.27.033.612-.011.927-.119.143-.048.204-.126.302-.386.286-.75.982-1.271 1.826-1.365l.456-.05.178-.357c.097-.197.203-.497.234-.668l.056-.31-.245-.263c-.867-.928-.591-2.44.55-3.024.261-.134.404-.165.788-.177.568-.016 1.005.146 1.385.515 1.161 1.129.522 3.067-1.087 3.297-.309.044-.354.07-.475.265-.152.244-.354.85-.348 1.044.002.07.06.177.131.236.388.33.729 1.052.743 1.577.011.425-.124.889-.371 1.27-.125.193-.226.382-.224.422 0 .04.085.195.187.346l.185.274.335-.056c.84-.14 1.388.013 1.956.548.361.34.399.36.656.352.374-.011.919-.121 1.376-.277l.382-.13-.007-.247a2.166 2.166 0 011.444-2.087c.18-.065.44-.122.576-.126l.247-.007.228-.491c.201-.431.44-1.265.374-1.304-1.014-.6-1.584-1.274-1.846-2.186-.158-.546-.157-1.34 0-1.892a3.53 3.53 0 012.28-2.348c.472-.153 1.347-.18 1.814-.055.845.226 1.524.687 2.002 1.358.367.516.559 1.036.626 1.701.056.556.054.554.711.65l.354.052.341-.36c.494-.52 1.06-.691 1.742-.53.255.06.273.056.482-.122.119-.102.285-.29.368-.419l.153-.233-.132-.349c-.317-.837.077-1.904.864-2.335.517-.283 1.257-.305 1.789-.052.742.351 1.205 1.278 1.043 2.086-.227 1.134-1.414 1.844-2.47 1.477l-.29-.1-.214.17c-.118.094-.29.28-.383.414l-.168.243.101.271c.22.59.11 1.27-.291 1.773-.138.174-.15.226-.11.473.026.152.11.394.188.537.13.241.166.265.504.343.84.194 1.338.774 1.367 1.597a1.663 1.663 0 01-1.747 1.742c-1.39-.05-2.111-1.668-1.222-2.74.207-.25.226-.3.194-.523a2.169 2.169 0 00-.164-.517c-.115-.24-.155-.274-.355-.3-.88-.111-1.371-.48-1.64-1.23-.098-.274-.134-.313-.37-.396a1.9 1.9 0 00-.554-.086c-.29.006-.294.008-.431.287-.531 1.081-1.68 1.827-2.908 1.886l-.528.026-.18.354c-.17.337-.349.909-.407 1.306-.023.154.001.203.15.306.255.177.578.667.705 1.067.153.482.12.972-.102 1.483l-.173.401.285.392c.157.216.436.517.62.67.316.26.345.272.483.196.636-.353 1.64-.332 2.369.05.292.152.751.588.93.883.474.784.481 1.842.018 2.613-.17.281-.56.68-.848.862-.364.232-1.042.398-1.476.361zm.685-1.005c.368-.121.754-.476.931-.857.187-.4.174-1.002-.03-1.371-.431-.78-1.335-1.082-2.119-.708-.585.28-.905.811-.885 1.47.016.508.194.873.583 1.196.433.359.963.453 1.52.27zm-10.417-3.278c.846-.383.995-1.514.274-2.074-.811-.63-1.98-.048-1.957.974.02.887.893 1.457 1.683 1.1zm-2.637-4.314a1.31 1.31 0 00.429-.394c.152-.232.167-.3.156-.71-.012-.387-.036-.485-.167-.666a1.724 1.724 0 00-.392-.365c-.209-.134-.295-.152-.683-.14-.385.01-.475.034-.68.18-.762.535-.685 1.739.136 2.139.412.2.765.188 1.201-.044zm10.882-3.347a2.517 2.517 0 001.758-1.453c.443-.995.191-2.127-.636-2.865-1.746-1.557-4.517-.015-4.122 2.293.168.976.927 1.789 1.878 2.01.452.104.695.107 1.122.015zm5.931-.525a.775.775 0 00.435-.76.783.783 0 00-.828-.754c-.46.013-.782.368-.768.846.01.32.164.553.458.688.3.138.407.135.703-.02zm3.28-3.295c.4-.222.6-.786.437-1.234-.096-.267-.484-.595-.752-.637a1.362 1.362 0 00-.417.012c-.265.058-.633.408-.714.68-.133.448.068.954.472 1.184.228.13.736.128.974-.005z" fill="#6d85f2"/><rect width="7.568" height="2.018" x="5.677" y="285.259" ry="1.009" fill="#d0e0f0" paint-order="stroke markers fill"/><rect ry="1.009" y="271.974" x="4.5" height="2.018" width="6.39" fill="#d0e0f0" paint-order="stroke markers fill"/><rect ry="1.009" y="264.376" x="23.375" height="2.018" width="7.568" fill="#d0e0f0" paint-order="stroke markers fill"/></g></symbol><symbol viewBox="0 0 39.688 39.688" id="language" xmlns="http://www.w3.org/2000/svg"><g transform="translate(0 -257.312)"><circle cy="277.156" cx="19.844" r="19.844" fill="#eef3f7" paint-order="stroke markers fill"/><circle cx="19.844" cy="277.156" r="12.7" fill="#6d85f2"/><ellipse ry="5.069" rx="4.949" cy="272.859" cx="21.79" fill="#bccef7" paint-order="stroke markers fill"/><ellipse ry="2.75" rx="2.738" cy="276.724" cx="27.012" fill="#ffdd6f" fill-opacity=".941" paint-order="stroke markers fill"/><path d="M19.181 290.112c-.792-.067-1.097-.101-1.52-.173a13.008 13.008 0 01-8.952-6.123 13.018 13.018 0 01-1.787-5.408c-.057-.562-.057-1.952 0-2.513.32-3.108 1.65-5.865 3.878-8.036 2.129-2.074 4.802-3.318 7.787-3.624.562-.058 1.953-.058 2.514 0 2.996.307 5.661 1.55 7.798 3.633 2.218 2.163 3.534 4.896 3.868 8.027.055.522.055 2 0 2.513-.343 3.156-1.65 5.864-3.878 8.035a12.824 12.824 0 01-7.613 3.603c-.459.051-1.779.093-2.095.067zm1.348-5.814c.26-.142.338-.308 1.241-2.636l.14-.358h5.148l.486 1.348c.422 1.17.504 1.369.62 1.5a.637.637 0 00.262.189c.08.023.434.033.936.027l.807-.01-2.348-5.915-2.348-5.915-.99-.01-.99-.008-2.33 5.871c-1.28 3.23-2.339 5.9-2.352 5.936-.023.06.013.063.793.052.687-.01.833-.02.925-.07zm1.984-4.45l.838-2.226c.791-2.103.976-2.62 1.078-3.018.028-.108.058-.17.069-.14.01.03.069.218.13.42.06.2.501 1.404.98 2.673.478 1.27.87 2.318.87 2.33 0 .011-.898.021-1.994.021-1.885 0-1.993-.003-1.97-.06zm-11.457.376a25.096 25.096 0 004.459-2.174l.296-.185.507.314c.278.173.82.472 1.205.666.7.352 1.73.785 1.897.796.083.005.102-.03.342-.64.14-.355.254-.664.255-.687.001-.022-.08-.068-.181-.1-.69-.228-2.162-.947-2.688-1.314l-.096-.067.241-.274c1.173-1.33 2.088-3.078 2.54-4.85l.098-.384.995-.01.995-.008.01-.69.01-.689H17.095l-.217-.584c-.12-.322-.282-.773-.36-1.003a4.2 4.2 0 00-.168-.45c-.015-.016-.366.085-.782.227-.585.2-.75.27-.738.31.009.029.134.343.278.698.143.355.271.68.284.724.022.078.022.078-2.93.078H9.511v1.396h2.225l.094.373a11.643 11.643 0 002.482 4.752c.266.309.33.403.292.428-.256.168-1.023.582-1.573.848a17.02 17.02 0 01-3.027 1.14c-.223.058-.426.112-.451.12-.03.01.01.097.126.269.094.14.277.426.407.637.337.55.33.541.369.541.018 0 .29-.093.601-.207zm4.495-4.632a9.505 9.505 0 01-1.762-2.744c-.174-.416-.416-1.148-.454-1.376l-.025-.148h5.004l-.024.148c-.044.267-.26.977-.423 1.387-.399 1.008-1.057 2.015-1.785 2.733l-.276.273z" fill="#eef3f7"/></g></symbol></svg>