<?xml version="1.0" encoding="UTF-8" standalone="no"?>
<svg
   xmlns="http://www.w3.org/2000/svg"
   id="default"
   viewBox="0 0 39.6875 39.687501"
   height="150"
   width="150">
  <defs
     id="defs2" />
  <g
     transform="translate(0,-257.31248)"
     id="layer1">
    <circle
       r="19.84375"
       cy="277.15622"
       cx="19.84375"
       id="path4747"
       style="opacity:1;fill:#eef3f7;fill-opacity:1;stroke:none;stroke-width:0.55920082;stroke-linecap:round;stroke-linejoin:round;stroke-miterlimit:4;stroke-dasharray:none;stroke-dashoffset:0;stroke-opacity:1;paint-order:stroke markers fill" />
    <ellipse
       ry="5.0685649"
       rx="4.9486055"
       cy="273.46259"
       cx="23.239056"
       id="path4793"
       style="opacity:1;fill:#bccef7;fill-opacity:1;stroke:none;stroke-width:0.85864067;stroke-linecap:round;stroke-linejoin:round;stroke-miterlimit:4;stroke-dasharray:none;stroke-dashoffset:0;stroke-opacity:1;paint-order:stroke markers fill" />
    <g
       transform="matrix(0.77214688,0,0,0.77214688,4.3916716,72.018217)"
       id="g4763" />
    <ellipse
       ry="3.2832386"
       rx="3.3072915"
       cy="278.59332"
       cx="6.5625672"
       id="path4791"
       style="opacity:1;fill:#d0e0f0;fill-opacity:1;stroke:none;stroke-width:0.21796744;stroke-linecap:round;stroke-linejoin:round;stroke-miterlimit:4;stroke-dasharray:none;stroke-dashoffset:0;stroke-opacity:1;paint-order:stroke markers fill" />
    <ellipse
       ry="2.7504625"
       rx="2.7383275"
       cy="271.37085"
       cx="32.324833"
       id="path4795"
       style="opacity:1;fill:#ffdd6f;fill-opacity:0.94117647;stroke:none;stroke-width:0.60610712;stroke-linecap:round;stroke-linejoin:round;stroke-miterlimit:4;stroke-dasharray:none;stroke-dashoffset:0;stroke-opacity:1;paint-order:stroke markers fill" />
    <path
       id="path4789"
       d="m 25.163346,288.05847 c -0.80602,-0.0676 -1.563178,-0.52447 -1.995499,-1.20427 -0.417605,-0.65667 -0.471118,-1.61648 -0.13113,-2.35195 l 0.161195,-0.34871 -0.164056,-0.26733 c -0.238801,-0.38912 -1.086864,-1.17065 -1.211833,-1.11675 -0.05402,0.0233 -0.249072,0.0755 -0.433453,0.11609 -0.619693,0.13632 -1.352799,-0.0646 -1.839946,-0.50418 -0.246282,-0.22225 -0.255777,-0.22516 -0.673076,-0.20557 -0.500487,0.0236 -0.906673,0.10617 -1.395749,0.28417 l -0.357168,0.12998 -0.05038,0.34479 c -0.243837,1.66872 -2.212528,2.43891 -3.482636,1.36248 -0.508136,-0.43065 -0.750295,-0.93403 -0.766434,-1.5932 -0.011,-0.44752 0.05879,-0.71955 0.289647,-1.12961 l 0.190425,-0.33824 -0.139081,-0.2782 c -0.205335,-0.41073 -0.250545,-0.43107 -0.937233,-0.42156 -0.535799,0.008 -0.640068,-0.009 -0.930686,-0.14724 -0.439411,-0.20888 -0.85574,-0.60495 -1.063963,-1.0122 -0.15522,-0.30358 -0.19221,-0.33779 -0.3957507,-0.36609 -0.366241,-0.0509 -1.100159,0.12214 -1.0962581,0.25856 0.00598,0.20899 -0.338975,0.81016 -0.62248,1.08484 -1.4942018,1.44764 -3.9951721,0.0501 -3.5462142,-1.9817 0.284418,-1.28711 1.6961684,-2.03465 2.889494,-1.53002 0.4256961,0.18001 0.8740871,0.57887 1.0559443,0.93929 0.1342726,0.26612 0.1625824,0.28822 0.4067573,0.31756 0.2694662,0.0324 0.6123697,-0.0119 0.9273727,-0.11919 0.142669,-0.0487 0.2034807,-0.12632 0.3022907,-0.38595 0.285868,-0.75112 0.981827,-1.27151 1.825472,-1.36495 l 0.45567,-0.0505 0.177941,-0.35728 c 0.09787,-0.1965 0.203238,-0.49699 0.234155,-0.66774 l 0.05621,-0.31047 -0.244746,-0.26216 c -0.866872,-0.92857 -0.591602,-2.44054 0.550651,-3.02456 0.260511,-0.1332 0.402723,-0.16506 0.78699,-0.17631 0.568063,-0.0166 1.005702,0.14593 1.384825,0.51438 1.161718,1.12901 0.522657,3.06767 -1.08706,3.2977 -0.308429,0.044 -0.353116,0.069 -0.474487,0.26461 -0.151665,0.24443 -0.353852,0.85045 -0.348197,1.04365 0.0021,0.0706 0.06106,0.17692 0.131105,0.23636 0.388285,0.32945 0.728746,1.05225 0.742765,1.57688 0.01135,0.4255 -0.124059,0.88911 -0.37119,1.27066 -0.124386,0.19204 -0.225206,0.38164 -0.224044,0.42133 0.0012,0.0397 0.08552,0.19555 0.187455,0.34635 l 0.185342,0.27417 0.334469,-0.0562 c 0.840011,-0.1411 1.388295,0.0125 1.956559,0.54798 0.360739,0.33994 0.398415,0.36018 0.655767,0.35222 0.373567,-0.0115 0.918497,-0.12142 1.375798,-0.27749 l 0.381839,-0.13029 -0.0065,-0.24683 c -0.02451,-0.92633 0.555376,-1.7647 1.443347,-2.08674 0.18074,-0.0655 0.439918,-0.12244 0.575955,-0.12642 l 0.247339,-0.007 0.228571,-0.49079 c 0.200628,-0.43078 0.439329,-1.26496 0.373161,-1.30407 -1.013573,-0.59915 -1.583668,-1.27416 -1.846043,-2.18582 -0.157143,-0.546 -0.156997,-1.34084 3.53e-4,-1.89168 0.311612,-1.09089 1.187936,-1.99354 2.279696,-2.34817 0.4725,-0.15348 1.347582,-0.17999 1.814334,-0.0551 0.845425,0.22648 1.524522,0.68711 2.002385,1.35821 0.36708,0.51553 0.558301,1.03531 0.625718,1.70084 0.05636,0.55644 0.05347,0.5538 0.711301,0.64995 l 0.354069,0.0518 0.341066,-0.35919 c 0.493459,-0.51969 1.058875,-0.69192 1.741706,-0.53054 0.255078,0.0603 0.273019,0.0557 0.481353,-0.12236 0.119021,-0.10173 0.285021,-0.2901 0.368891,-0.41857 l 0.152492,-0.23359 -0.131934,-0.3482 c -0.317301,-0.83743 0.07743,-1.90472 0.863704,-2.33529 0.516807,-0.28301 1.256814,-0.30467 1.78929,-0.0524 0.741723,0.35144 1.205077,1.27807 1.043223,2.08627 -0.227188,1.13444 -1.41372,1.84386 -2.470739,1.47724 l -0.288532,-0.10007 -0.214937,0.17026 c -0.118216,0.0936 -0.290606,0.27975 -0.383093,0.41354 l -0.168159,0.24326 0.101326,0.27114 c 0.220625,0.59032 0.10904,1.26982 -0.291154,1.77295 -0.138396,0.17401 -0.150416,0.2261 -0.109033,0.47263 0.02558,0.15237 0.109741,0.39387 0.187015,0.53666 0.130687,0.24146 0.165907,0.26546 0.503972,0.34336 0.841043,0.19381 1.337916,0.77432 1.367116,1.59725 0.03535,0.9959 -0.749239,1.77814 -1.747378,1.74217 -1.389104,-0.0501 -2.110931,-1.66867 -1.222003,-2.7402 0.207728,-0.2504 0.226196,-0.30015 0.194376,-0.52351 -0.01934,-0.13575 -0.09326,-0.36843 -0.164279,-0.51706 -0.114438,-0.2395 -0.15479,-0.27349 -0.354882,-0.29891 -0.879019,-0.11168 -1.371296,-0.48118 -1.639753,-1.23083 -0.098,-0.27366 -0.134329,-0.31252 -0.369596,-0.39536 -0.1435,-0.0505 -0.392909,-0.0894 -0.554243,-0.0865 -0.291099,0.006 -0.29438,0.008 -0.431674,0.28728 -0.530595,1.0811 -1.679808,1.82638 -2.907933,1.88583 l -0.527353,0.0255 -0.179614,0.35453 c -0.170775,0.3371 -0.349257,0.90864 -0.407863,1.30608 -0.02263,0.15346 0.0015,0.20264 0.1506,0.30623 0.254536,0.17691 0.577935,0.66631 0.704919,1.06675 0.15287,0.48209 0.119224,0.97178 -0.101877,1.48269 l -0.173678,0.40132 0.285202,0.39225 c 0.156861,0.21575 0.436184,0.51707 0.620718,0.66962 0.315139,0.26051 0.344444,0.27241 0.482535,0.19587 0.635935,-0.35249 1.6396,-0.3316 2.36852,0.0493 0.292525,0.15286 0.751684,0.58919 0.929833,0.88359 0.474309,0.78382 0.481692,1.8422 0.01823,2.61281 -0.16955,0.2819 -0.56043,0.67955 -0.847348,0.86203 -0.364762,0.23197 -1.042633,0.39813 -1.476081,0.36182 z m 0.684812,-1.00582 c 0.367864,-0.12106 0.753867,-0.47599 0.931216,-0.85625 0.187043,-0.40104 0.173691,-1.00255 -0.03045,-1.37183 -0.431153,-0.77992 -1.335182,-1.08179 -2.11863,-0.70746 -0.58551,0.27975 -0.905333,0.8111 -0.884904,1.47018 0.01573,0.50749 0.193714,0.87265 0.58257,1.19524 0.433011,0.35923 0.963194,0.45343 1.520198,0.27012 z m -10.416817,-3.27782 c 0.845631,-0.38268 0.99484,-1.51379 0.273549,-2.07371 -0.811263,-0.62978 -1.980103,-0.0482 -1.956938,0.97374 0.02006,0.8868 0.893423,1.45744 1.683389,1.09997 z m -2.637176,-4.31401 c 0.152902,-0.0813 0.32892,-0.24312 0.428549,-0.39408 0.152677,-0.23132 0.167785,-0.30015 0.155795,-0.70978 -0.01133,-0.38707 -0.03571,-0.48471 -0.166179,-0.66566 -0.0841,-0.11663 -0.260545,-0.28117 -0.392109,-0.36564 -0.208831,-0.13406 -0.295588,-0.15192 -0.683197,-0.14058 -0.385321,0.0113 -0.475301,0.035 -0.680952,0.17999 -0.760759,0.5361 -0.683679,1.7398 0.137025,2.13977 0.412022,0.20079 0.764711,0.18787 1.201067,-0.0442 z m 10.881984,-3.34728 c 0.775401,-0.16833 1.426382,-0.70608 1.758228,-1.4524 0.442337,-0.99482 0.190624,-2.12723 -0.636877,-2.8652 -1.745648,-1.55677 -4.516662,-0.0151 -4.121242,2.29282 0.16731,0.97656 0.926642,1.78914 1.877906,2.00961 0.451696,0.10469 0.694526,0.10796 1.121985,0.0152 z m 5.931228,-0.52412 c 0.296105,-0.15419 0.449799,-0.42267 0.434838,-0.75957 -0.01971,-0.44441 -0.375406,-0.76861 -0.828673,-0.75534 -0.459388,0.0134 -0.781366,0.36851 -0.767383,0.84622 0.0094,0.32075 0.164134,0.5531 0.458316,0.68815 0.299874,0.13767 0.40685,0.1347 0.702899,-0.0196 z m 3.279982,-3.29514 c 0.400075,-0.22195 0.599697,-0.78578 0.436989,-1.23426 -0.09679,-0.26676 -0.484476,-0.59533 -0.752207,-0.63748 -0.115411,-0.0181 -0.303236,-0.0126 -0.417389,0.0122 -0.264806,0.0578 -0.632618,0.40842 -0.713632,0.68039 -0.133542,0.44831 0.06774,0.95341 0.471772,1.18384 0.227999,0.13004 0.736017,0.12758 0.974467,-0.005 z"
       style="fill:#6d85f2;fill-opacity:1;stroke-width:0.05865276"/>
    <rect
       style="opacity:1;fill:#d0e0f0;fill-opacity:1;stroke:none;stroke-width:0.86377019;stroke-linecap:round;stroke-linejoin:round;stroke-miterlimit:4;stroke-dasharray:none;stroke-dashoffset:0;stroke-opacity:1;paint-order:stroke markers fill"
       id="rect4765"
       width="7.5675321"
       height="2.0180085"
       x="5.6768856"
       y="285.25888"
       ry="1.0090042" />
    <rect
       ry="1.0090042"
       y="271.97363"
       x="4.4997144"
       height="2.0180085"
       width="6.3903604"
       id="rect4767"
       style="opacity:1;fill:#d0e0f0;fill-opacity:1;stroke:none;stroke-width:0.79375005;stroke-linecap:round;stroke-linejoin:round;stroke-miterlimit:4;stroke-dasharray:none;stroke-dashoffset:0;stroke-opacity:1;paint-order:stroke markers fill" />
    <rect
       ry="1.0090042"
       y="264.37552"
       x="23.375265"
       height="2.0180085"
       width="7.5675321"
       id="rect4769"
       style="opacity:1;fill:#d0e0f0;fill-opacity:1;stroke:none;stroke-width:0.86377019;stroke-linecap:round;stroke-linejoin:round;stroke-miterlimit:4;stroke-dasharray:none;stroke-dashoffset:0;stroke-opacity:1;paint-order:stroke markers fill" />
  </g>
</svg>
