<?xml version="1.0" encoding="UTF-8" standalone="no"?>
<svg
        xmlns="http://www.w3.org/2000/svg"
        id="error"
        viewBox="0 0 39.6875 39.687501"
        height="150"
        width="150">
  <g
     id="g891"
     transform="scale(0.26458334)">
    <path
       d="m 75,150 c 41.421,0 75,-33.579 75,-75 C 150,33.5786 116.421,0 75,0 33.5786,0 0,33.5786 0,75 c 0,41.421 33.5786,75 75,75 z"
       fill="#eef3f7"
       id="path875" />
    <path
       d="m 136.582,32.3398 c -1.216,2.7255 -2.639,6.2468 -4.312,10.4082 -2.552,6.3473 -5.599,13.9311 -8.977,21.3418 -3.378,7.4108 -7.093,14.6528 -10.947,20.2852 -3.855,5.6324 -7.879,9.5848 -11.561,10.6367 -5.8902,1.683 -10.7372,-0.607 -15.6795,-3.875 -4.9424,-3.268 -9.8055,-7.5194 -15.5528,-9.1972 -5.7473,-1.6779 -12.3284,-0.5296 -20.0488,6.5917 -7.4242,6.8482 -16.089,19.1978 -26.8555,40.0728 0.4987,0.477 1.004,0.948 1.5157,1.412 C 34.9993,108.942 43.6924,96.6126 50.8613,90 c 7.396,-6.8221 12.9785,-7.6383 18.1289,-6.1348 5.1504,1.5036 9.9222,5.5716 15.0157,8.9395 5.0934,3.3679 10.6857,6.032 17.3261,4.1348 4.541,-1.2974 8.699,-5.6391 12.666,-11.4356 3.967,-5.7965 7.714,-13.1215 11.117,-20.5879 3.404,-7.4664 6.454,-15.0751 9.006,-21.4219 1.45,-3.6062 2.725,-6.7365 3.817,-9.2578 -0.442,-0.6391 -0.894,-1.2714 -1.356,-1.8965 z"
       fill="#6d85f2"
       id="path877" />
    <path
       d="M 120.248,113.22 H 84.4127 c -2.0393,0 -3.6924,1.653 -3.6924,3.693 v 0.615 c 0,2.039 1.6531,3.692 3.6924,3.692 h 35.8353 c 2.04,0 3.693,-1.653 3.693,-3.692 v -0.615 c 0,-2.04 -1.653,-3.693 -3.693,-3.693 z"
       fill="#d0e0f0"
       id="path879" />
    <path
       d="M 61.1382,40.1271 H 25.3025 c -2.0392,0 -3.6923,1.6531 -3.6923,3.6923 v 0.6154 c 0,2.0392 1.6531,3.6923 3.6923,3.6923 h 35.8357 c 2.0392,0 3.6923,-1.6531 3.6923,-3.6923 v -0.6154 c 0,-2.0392 -1.6531,-3.6923 -3.6923,-3.6923 z"
       fill="#d0e0f0"
       id="path881" />
    <path
       d="m 76.1499,40.1271 h 3.4205 c 2.0392,0 3.6923,1.6531 3.6923,3.6923 v 0.6154 c 0,2.0392 -1.6531,3.6923 -3.6923,3.6923 h -3.4205 c -2.0392,0 -3.6923,-1.6531 -3.6923,-3.6923 v -0.6154 c 0,-2.0392 1.6531,-3.6923 3.6923,-3.6923 z"
       fill="#d0e0f0"
       id="path883" />
    <path
       id="path885"
       fill="#F3714B"
       d="m 83.277344,44.738281 c -1.967073,-0.04386 -3.974007,0.204528 -5.964844,0.775391 l -19.087891,5.472656 c -10.6178,3.0446 -16.755637,14.120481 -13.710937,24.738281 l 2.755859,9.611329 c 1.7769,6.1967 6.28931,10.867625 11.84961,13.078124 l 1.076171,13.455078 c 0.153301,1.918 2.660447,2.53425 3.685547,0.90625 L 72.640625,98.867188 91.09375,93.576172 c 10.6175,-3.0446 16.75789,-14.120481 13.71289,-24.738281 l -2.75586,-9.613282 C 99.576719,50.597647 91.801326,44.928356 83.277344,44.738281 Z" />
    <path
       id="path887"
       d="m 83.228516,52.742188 c -1.180703,0.104164 -2.290328,0.773921 -2.908204,1.888671 L 73.572266,66.804688 61.400391,60.056641 c -1.7835,-0.9886 -4.030932,-0.344047 -5.019532,1.439453 l -0.298828,0.537109 c -0.9887,1.7835 -0.344147,4.030831 1.439453,5.019531 l 12.171875,6.748047 -6.746093,12.171875 c -0.9887,1.7835 -0.344047,4.030931 1.439453,5.019532 l 0.537109,0.298828 c 1.7835,0.9886 4.030931,0.344046 5.019531,-1.439454 l 6.748047,-12.171874 12.171875,6.748046 c 1.7835,0.9886 4.030932,0.344047 5.019531,-1.439453 l 0.298829,-0.539062 c 0.9887,-1.7836 0.344047,-4.030931 -1.439453,-5.019531 L 80.568359,70.681641 87.316406,58.509766 c 0.9887,-1.7836 0.346,-4.030932 -1.4375,-5.019532 l -0.539062,-0.298828 c -0.668813,-0.370725 -1.402907,-0.511717 -2.111328,-0.449218 z"
       fill="white" />
  </g>
</svg>
