<svg width="24" height="24" viewBox="0 0 24 24" xmlns="http://www.w3.org/2000/svg">
    <path id="book"
          d="M20 16.3594V3.89062C20 3.39707 19.6179 3 19.1429 3H7.42857C5.53571 3 4 4.5957 4 6.5625V18.4375C4 20.4043 5.53571 22 7.42857 22H19.1429C19.6179 22 20 21.6029 20 21.1094V20.5156C20 20.2373 19.875 19.985 19.6821 19.8217C19.5321 19.2502 19.5321 17.6211 19.6821 17.0496C19.875 16.89 20 16.6377 20 16.3594ZM8.57143 7.97266C8.57143 7.8502 8.66786 7.75 8.78571 7.75H16.3571C16.475 7.75 16.5714 7.8502 16.5714 7.97266V8.71484C16.5714 8.8373 16.475 8.9375 16.3571 8.9375H8.78571C8.66786 8.9375 8.57143 8.8373 8.57143 8.71484V7.97266ZM8.57143 10.3477C8.57143 10.2252 8.66786 10.125 8.78571 10.125H16.3571C16.475 10.125 16.5714 10.2252 16.5714 10.3477V11.0898C16.5714 11.2123 16.475 11.3125 16.3571 11.3125H8.78571C8.66786 11.3125 8.57143 11.2123 8.57143 11.0898V10.3477ZM17.6214 19.625H7.42857C6.79643 19.625 6.28571 19.0943 6.28571 18.4375C6.28571 17.7844 6.8 17.25 7.42857 17.25H17.6214C17.5536 17.8846 17.5536 18.9904 17.6214 19.625Z"
          fill="inherit" />
</svg>
