<svg width="24" height="24" viewBox="0 0 24 24" xmlns="http://www.w3.org/2000/svg">
    <path id="dna"
          d="M5.00339 21.3357C4.96902 21.6882 5.20026 21.9962 5.50025 21.9962L6.50958 22C6.7627 22 6.97519 21.781 7.00957 21.4841C7.03144 21.3023 7.06581 21.0722 7.11581 20.8125H16.8748C16.9248 21.0685 16.9654 21.3023 16.9842 21.4841C17.0186 21.781 17.2311 22.0037 17.4842 22L18.4935 21.9962C18.7935 21.9962 19.0279 21.6882 18.9904 21.3357C18.8466 19.9293 18.1904 16.5486 15.2749 13.6281C14.7249 14.0883 14.1155 14.5262 13.4468 14.9418C13.6406 15.1125 13.8031 15.2906 13.978 15.4687H9.9907C10.6563 14.7971 11.4594 14.1476 12.45 13.5613C17.8279 10.3885 18.8154 5.44183 18.9966 3.6643C19.031 3.31176 18.7997 3.00376 18.4998 3.00376L17.4873 3.00005C17.2342 3.00005 17.0217 3.21899 16.9873 3.51586C16.9654 3.6977 16.9311 3.92778 16.8811 4.18754H7.11894C7.06894 3.92778 7.03456 3.70141 7.01269 3.51586C6.97832 3.21899 6.76582 2.99633 6.51271 3.00005L5.50337 3.00376C5.20338 3.00376 4.96902 3.31176 5.00339 3.6643C5.16589 5.25629 5.98148 9.37541 10.0001 12.5C5.9846 15.6246 5.16589 19.7437 5.00339 21.3357ZM12 11.1492C11.2157 10.6408 10.5501 10.0953 9.9907 9.53127H14.0062C13.4499 10.0953 12.7843 10.6445 12 11.1492ZM16.0967 6.56253C15.9155 6.94846 15.6967 7.34553 15.4405 7.75002H8.56263C8.30327 7.34553 8.08452 6.94846 7.90641 6.56253H16.0967ZM7.90328 18.4375C8.08452 18.0515 8.30327 17.6545 8.55951 17.25H15.4155C15.6749 17.6545 15.8967 18.0515 16.078 18.4375H7.90328Z"
          fill="inherit" />
</svg>
