<svg width="24" height="24" viewBox="0 0 24 24" xmlns="http://www.w3.org/2000/svg">
    <path id="gene-ontology"
          d="M8.25332 3.00005C7.1216 3.01067 6.03984 3.46771 5.24332 4.27175C4.44681 5.07579 3.99998 6.1618 4 7.29357C4.00005 8.24636 4.31701 9.17207 4.90097 9.92492C5.48494 10.6778 6.30273 11.215 7.22557 11.452V13.428C6.30273 13.665 5.48494 14.2023 4.90097 14.9551C4.31701 15.708 4.00005 16.6337 4 17.5865C4.00003 18.7252 4.45239 19.8172 5.25757 20.6224C6.06276 21.4276 7.15482 21.88 8.29353 21.88C8.8574 21.88 9.41575 21.769 9.93671 21.5533C10.4577 21.3375 10.931 21.0213 11.3298 20.6226C11.7285 20.2239 12.0448 19.7506 12.2606 19.2296C12.4764 18.7087 12.5875 18.1503 12.5875 17.5865C12.5875 16.6337 12.2705 15.708 11.6865 14.9551C11.1026 14.2023 10.2848 13.665 9.36194 13.428V11.452C10.2848 11.215 11.1026 10.6778 11.6865 9.92492C12.2705 9.17207 12.5875 8.24636 12.5875 7.29357C12.5875 7.16598 12.5817 7.03846 12.5703 6.91138L14.0173 6.10499L12.9778 4.23832L11.8398 4.87259C11.4458 4.29542 10.9168 3.82317 10.2987 3.49684C9.68073 3.17052 8.99241 2.99998 8.29353 3.00005C8.28013 2.99998 8.26673 2.99998 8.25333 3.00005H8.25332ZM8.29353 5.13958C8.57643 5.13954 8.85657 5.19521 9.11795 5.30344C9.37933 5.41167 9.61683 5.57032 9.81689 5.77034C10.017 5.97036 10.1757 6.20783 10.2839 6.46919C10.3922 6.73055 10.448 7.01067 10.448 7.29357C10.448 7.57647 10.3922 7.8566 10.2839 8.11796C10.1757 8.37932 10.017 8.61679 9.81689 8.81681C9.61683 9.01683 9.37933 9.17548 9.11795 9.28371C8.85657 9.39193 8.57643 9.44761 8.29353 9.44756C7.72226 9.44754 7.1744 9.22059 6.77045 8.81665C6.36651 8.4127 6.13956 7.86484 6.13954 7.29357C6.13956 6.72231 6.36651 6.17445 6.77045 5.7705C7.1744 5.36655 7.72226 5.13961 8.29353 5.13958ZM17.7498 8.43562C17.1784 8.44106 16.6138 8.5605 16.0892 8.78694C15.5646 9.01338 15.0904 9.34226 14.6945 9.75431L13.014 8.81781L11.9745 10.6845L13.6437 11.6147C13.546 11.9781 13.4965 12.3528 13.4964 12.7291C13.4965 13.8679 13.9488 14.9599 14.754 15.7651C15.5592 16.5703 16.6513 17.0227 17.79 17.0227C18.3538 17.0227 18.9122 16.9117 19.4332 16.696C19.9541 16.4802 20.4275 16.164 20.8262 15.7653C21.225 15.3666 21.5413 14.8932 21.7571 14.3723C21.9729 13.8514 22.0839 13.293 22.084 12.7291C22.0839 12.1653 21.9729 11.6069 21.7571 11.086C21.5413 10.5651 21.225 10.0917 20.8262 9.69304C20.4275 9.29434 19.9541 8.97809 19.4332 8.76234C18.9122 8.5466 18.3538 8.43558 17.79 8.43562C17.7766 8.43556 17.7632 8.43556 17.7498 8.43562H17.7498ZM17.79 10.5752C18.0729 10.5751 18.353 10.6308 18.6144 10.739C18.8758 10.8472 19.1133 11.0059 19.3133 11.2059C19.5134 11.4059 19.6721 11.6434 19.7804 11.9048C19.8887 12.1661 19.9444 12.4462 19.9444 12.7291C19.9444 13.012 19.8887 13.2922 19.7804 13.5535C19.6721 13.8149 19.5134 14.0524 19.3133 14.2524C19.1133 14.4524 18.8758 14.6111 18.6144 14.7193C18.353 14.8275 18.0729 14.8832 17.79 14.8831C17.2187 14.8831 16.6708 14.6562 16.2669 14.2522C15.8629 13.8483 15.636 13.3004 15.636 12.7291C15.636 12.1579 15.8629 11.61 16.2669 11.2061C16.6708 10.8021 17.2187 10.5752 17.79 10.5752V10.5752ZM8.29353 15.4325C8.57643 15.4324 8.85657 15.4881 9.11795 15.5963C9.37933 15.7046 9.61683 15.8632 9.81689 16.0632C10.017 16.2633 10.1757 16.5007 10.2839 16.7621C10.3922 17.0234 10.448 17.3036 10.448 17.5865C10.448 17.8694 10.3922 18.1495 10.2839 18.4109C10.1757 18.6722 10.017 18.9097 9.81689 19.1097C9.61683 19.3097 9.37933 19.4684 9.11795 19.5766C8.85657 19.6848 8.57643 19.7405 8.29353 19.7405C7.72226 19.7404 7.1744 19.5135 6.77045 19.1095C6.36651 18.7056 6.13956 18.1577 6.13954 17.5865C6.13956 17.0152 6.36651 16.4673 6.77045 16.0634C7.1744 15.6595 7.72226 15.4325 8.29353 15.4325V15.4325Z"
          fill="inherit" />
</svg>
