<?xml version="1.0" encoding="UTF-8" standalone="no"?>
<svg
   xmlns:dc="http://purl.org/dc/elements/1.1/"
   xmlns:cc="http://creativecommons.org/ns#"
   xmlns:rdf="http://www.w3.org/1999/02/22-rdf-syntax-ns#"
   xmlns:svg="http://www.w3.org/2000/svg"
   xmlns="http://www.w3.org/2000/svg"
   width="100"
   height="40"
   viewBox="0 0 100 40"
   fill="none"
   version="1.1"
   id="svg839">
  <metadata
     id="metadata845">
    <rdf:RDF>
      <cc:Work
         rdf:about="">
        <dc:format>image/svg+xml</dc:format>
        <dc:type
           rdf:resource="http://purl.org/dc/dcmitype/StillImage" />
        <dc:title></dc:title>
      </cc:Work>
    </rdf:RDF>
  </metadata>
  <defs
     id="defs843" />
  <g
     id="g846"
     transform="matrix(2.1417863,0,0,2.1417863,0.14328423,-3.5596493)">
    <path
       d="m 20.5021,4.51758 c 0,0.6709 -0.2198,1.18506 -0.6592,1.54248 -0.4395,0.35742 -1.065,0.53613 -1.8765,0.53613 h -0.668 V 9 H 16.2481 V 2.5752 h 1.8501 c 0.8028,0 1.4034,0.16406 1.8018,0.49218 0.4014,0.32813 0.6021,0.81153 0.6021,1.4502 z m -3.2037,1.19531 h 0.5581 c 0.5391,0 0.9346,-0.09375 1.1866,-0.28125 C 19.295,5.24414 19.421,4.95117 19.421,4.55273 19.421,4.18359 19.3082,3.9082 19.0826,3.72656 18.857,3.54492 18.5055,3.4541 18.0279,3.4541 H 17.2984 Z M 26.3195,9 H 22.6853 V 2.5752 h 3.6342 v 0.88769 h -2.584 v 1.74902 h 2.4214 v 0.87891 h -2.4214 v 2.01709 h 2.584 z m 7.6456,0 H 32.6775 L 29.5179,3.88037 h -0.0352 l 0.022,0.28565 c 0.041,0.54492 0.0615,1.04296 0.0615,1.49414 V 9 H 28.6126 V 2.5752 h 1.2744 l 3.1509,5.09326 h 0.0264 C 33.0584,7.60107 33.0467,7.35645 33.0291,6.93457 33.0115,6.50977 33.0027,6.17871 33.0027,5.94141 V 2.5752 h 0.9624 z"
       fill="#7673d1"
       id="path833" />
    <path
       d="m 26.2824,19 h -3.6343 v -6.4248 h 3.6343 v 0.8877 h -2.584 v 1.749 h 2.4214 v 0.8789 h -2.4214 v 2.0171 h 2.584 z m 7.6456,0 h -1.2876 l -3.1596,-5.1196 h -0.0352 l 0.022,0.2856 c 0.041,0.5449 0.0615,1.043 0.0615,1.4942 V 19 h -0.9536 v -6.4248 h 1.2744 l 3.1509,5.0933 h 0.0263 C 33.0213,17.6011 33.0096,17.3564 32.992,16.9346 32.9744,16.5098 32.9656,16.1787 32.9656,15.9414 v -3.3662 h 0.9624 z m 6.2306,0 h -3.6343 v -6.4248 h 3.6343 v 0.8877 h -2.584 v 1.749 h 2.4214 v 0.8789 h -2.4214 v 2.0171 h 2.584 z m 5.9976,-1.7446 c 0,0.5713 -0.2065,1.0195 -0.6196,1.3447 -0.4131,0.3252 -0.9829,0.4878 -1.7095,0.4878 -0.7265,0 -1.3212,-0.1128 -1.7841,-0.3384 v -0.9932 c 0.2929,0.1377 0.6035,0.2461 0.9316,0.3252 0.3311,0.0791 0.6387,0.1187 0.9229,0.1187 0.416,0 0.7221,-0.0791 0.9184,-0.2373 0.1992,-0.1582 0.2988,-0.3706 0.2988,-0.6372 0,-0.2403 -0.0908,-0.4439 -0.2724,-0.6109 -0.1817,-0.1669 -0.5567,-0.3647 -1.125,-0.5932 -0.586,-0.2373 -0.999,-0.5083 -1.2393,-0.813 -0.2402,-0.3047 -0.3603,-0.6709 -0.3603,-1.0986 0,-0.5362 0.1904,-0.958 0.5713,-1.2657 0.3808,-0.3076 0.892,-0.4614 1.5337,-0.4614 0.6152,0 1.2275,0.1348 1.8369,0.4043 l -0.334,0.8569 c -0.5713,-0.2402 -1.0811,-0.3603 -1.5293,-0.3603 -0.3399,0 -0.5977,0.0747 -0.7735,0.2241 -0.1757,0.1465 -0.2636,0.3413 -0.2636,0.5845 0,0.167 0.0351,0.3105 0.1054,0.4306 0.0704,0.1172 0.1861,0.2286 0.3472,0.334 0.1611,0.1055 0.4512,0.2447 0.8701,0.4175 0.4717,0.1963 0.8174,0.3794 1.0371,0.5493 0.2198,0.17 0.3809,0.3618 0.4834,0.5757 0.1026,0.2139 0.1538,0.4658 0.1538,0.7559 z"
       fill="#7673d1"
       id="path835" />
    <path
       fill-rule="evenodd"
       clip-rule="evenodd"
       d="M 10.493,2 C 8.3231001,2 6.5544301,3.76903 6.5544301,5.93893 c 0,0.33278 0.04199,0.65594 0.12026,0.96493 l -2.25102,1.09744 c -0.41984,-0.49649 -1.0461,-0.81376 -1.74192,-0.81376 -1.25355,0 -2.28175,1.02892 -2.28175,2.28247 2.1e-6,1.25359 1.0282,2.28179 2.28175,2.28179 1.25355,0 2.28246,-1.0282 2.28247,-2.28179 0,-0.14352 -0.01421,-0.28387 -0.03997,-0.42029 l 2.20057,-1.07275 c 0.69168,1.1381 1.94339,1.9009 3.3681799,1.9009 0.4935,0 0.9659,-0.09242 1.4019,-0.25936 l 1.5531,3.28899 c -0.9603,0.7194 -1.5833,1.866 -1.5833,3.1539 0,2.1699 1.7685,3.9386 3.9384,3.9386 2.1699,0 3.9389,-1.7687 3.9389,-3.9386 0,-0.1905 -0.0136,-0.378 -0.0399,-0.5614 H 19.4 18.7744 15.4 v 1 h 3.3947 c -0.2112,1.4654 -1.4657,2.5839 -2.9916,2.5839 -1.6748,0 -3.0228,-1.3476 -3.0228,-3.0225 0,-1.6748 1.348,-3.0228 3.0228,-3.0228 0.8015,0 1.5281,0.3086 2.0679,0.8141 l 0.7731,-0.5154 c -0.7176,-0.7481 -1.7264,-1.2148 -2.841,-1.2148 -0.467,0 -0.9152,0.0824 -1.3314,0.2327 L 12.9089,9.04545 C 13.8345,8.32368 14.4319,7.19933 14.4319,5.93893 14.4319,3.76903 12.6629,2 10.493,2 Z m 0,0.91608 c 1.6749,0 3.0229,1.34799 3.0229,3.02285 0,1.67486 -1.348,3.02286 -3.0229,3.02286 -1.6748499,0 -3.0223199,-1.348 -3.0223199,-3.02286 0,-1.67486 1.34747,-3.02285 3.0223199,-3.02285 z"
       fill="#7673d1"
       id="path837" />
    <circle
       style="fill:#fe6231;fill-opacity:0.983806;stroke-width:2.09098;stroke-linecap:round;stroke-linejoin:round"
       id="path841"
       cx="2.6890001"
       cy="9.4549999"
       r="2.289" />
  </g>
</svg>
